<svg width="61" height="60" viewBox="0 0 61 60" fill="none" xmlns="http://www.w3.org/2000/svg">
<path d="M8.5 30.5C8.5 18.3828 18.2969 8.5 30.5 8.5C42.6172 8.5 52.5 18.3828 52.5 30.5C52.5 42.7031 42.6172 52.5 30.5 52.5C18.2969 52.5 8.5 42.7031 8.5 30.5ZM40.3828 26.7188C41.3281 25.7734 41.3281 24.3125 40.3828 23.3672C39.4375 22.4219 37.9766 22.4219 37.0312 23.3672L27.75 32.6484L23.8828 28.8672C22.9375 27.9219 21.4766 27.9219 20.5312 28.8672C19.5859 29.8125 19.5859 31.2734 20.5312 32.2188L26.0312 37.7188C26.9766 38.6641 28.4375 38.6641 29.3828 37.7188L40.3828 26.7188Z" fill="#28A745"/>
</svg>
