<svg width="17" height="22" viewBox="0 0 17 22" fill="none" xmlns="http://www.w3.org/2000/svg">
<path d="M5 16C5.53125 16 6 16.4688 6 17C6 17.5625 5.53125 18 5 18H3C1.3125 18 0 16.6875 0 15V7C0 5.34375 1.3125 4 3 4H5C5.53125 4 6 4.46875 6 5C6 5.5625 5.53125 6 5 6H3C2.4375 6 2 6.46875 2 7V15C2 15.5625 2.4375 16 3 16H5ZM15.6875 10.3125C16.0938 10.6875 16.0938 11.3438 15.6875 11.7188L11.6875 15.7188C11.3125 16.125 10.6562 16.125 10.2812 15.7188C9.875 15.3438 9.875 14.6875 10.2812 14.3125L12.5625 12H6C5.4375 12 5 11.5625 5 11C5 10.4688 5.4375 10 6 10H12.5625L10.2812 7.71875C9.875 7.34375 9.875 6.6875 10.2812 6.3125C10.6562 5.90625 11.3125 5.90625 11.6875 6.3125L15.6875 10.3125Z" fill="#33333F"/>
</svg>
