<svg width="61" height="61" viewBox="0 0 61 61" fill="none" xmlns="http://www.w3.org/2000/svg">
<path d="M8.5 30.8584C8.5 18.7412 18.2969 8.8584 30.5 8.8584C42.6172 8.8584 52.5 18.7412 52.5 30.8584C52.5 43.0615 42.6172 52.8584 30.5 52.8584C18.2969 52.8584 8.5 43.0615 8.5 30.8584ZM23.5391 26.8193L27.5781 30.8584L23.5391 34.8975C22.6797 35.7568 22.6797 37.0459 23.5391 37.8193C24.3125 38.6787 25.6016 38.6787 26.375 37.8193L30.4141 33.7803L34.5391 37.8193C35.3125 38.6787 36.6016 38.6787 37.375 37.8193C38.2344 37.0459 38.2344 35.7568 37.375 34.8975L33.3359 30.8584L37.375 26.8193C38.2344 26.0459 38.2344 24.7568 37.375 23.8975C36.6016 23.124 35.3125 23.124 34.5391 23.8975L30.4141 28.0225L26.375 23.8975C25.6016 23.124 24.3125 23.124 23.5391 23.8975C22.6797 24.7568 22.6797 26.0459 23.5391 26.8193Z" fill="#DD0606"/>
</svg>
