<svg width="40" height="44" viewBox="0 0 40 44" fill="none" xmlns="http://www.w3.org/2000/svg">
<path d="M21.0229 16.3774L14.4329 19.2349L6.71766 40.3624C6.69087 40.4428 6.77123 40.5231 6.8516 40.5053L12.8612 38.7283L16.3081 43.9521C16.3617 44.0236 16.4688 44.0146 16.5045 43.9343L24.2108 22.8068L21.0229 16.3774Z" fill="#25AEF2"/>
<g style="mix-blend-mode:multiply" opacity="0.5">
<path d="M21.0229 16.3774L14.4329 19.2349L6.71766 40.3624C6.69087 40.4428 6.77123 40.5231 6.8516 40.5053L12.8612 38.7283L16.3081 43.9521C16.3617 44.0236 16.4688 44.0146 16.5045 43.9343L24.2108 22.8068L21.0229 16.3774Z" fill="#25AEF2"/>
</g>
<g style="mix-blend-mode:multiply" opacity="0.5">
<path d="M23.1314 20.6274L20.006 21.5293L18.6934 37.9331L24.2119 22.8063L23.1314 20.6274Z" fill="#1BAFDD"/>
</g>
<path d="M34.7934 39.4152L25.3548 19.1182L18.5415 16.8232L15.9072 23.5026L25.3458 43.7996C25.4083 43.9157 25.578 43.9247 25.6405 43.8086L28.4623 38.5312L34.6237 39.6474C34.7487 39.6652 34.847 39.5402 34.7934 39.4152Z" fill="#25AEF2"/>
<g style="mix-blend-mode:multiply" opacity="0.3">
<path d="M20.0048 31.8882C23.6749 31.8882 27.0503 30.6113 29.7024 28.486L25.3537 19.1188L21.7818 17.9133L21.0228 16.3774L19.353 17.1007L18.5404 16.8239L18.2457 17.5829L14.4328 19.2349L10.8877 28.9325C13.4505 30.7988 16.6027 31.8882 20.0048 31.8882Z" fill="#1BAFDD"/>
</g>
<path d="M35.5148 15.5168C35.5148 6.94432 28.5676 -0.00292969 20.0041 -0.00292969C11.4316 -0.00292969 4.48438 6.94432 4.48438 15.5168C4.48438 24.0892 11.4316 31.0364 20.0041 31.0364C28.5676 31.0364 35.5148 24.0892 35.5148 15.5168Z" fill="#F8B805"/>
<g style="mix-blend-mode:screen" opacity="0.5">
<path d="M4.913 15.9454C4.913 7.37294 11.8602 0.425693 20.4327 0.425693C24.6028 0.425693 28.3979 2.07767 31.184 4.76549C28.3622 1.82764 24.3974 -0.00292969 20.0041 -0.00292969C11.4316 -0.00292969 4.48438 6.94432 4.48438 15.5168C4.48438 19.9101 6.31495 23.8749 9.24387 26.7056C6.56498 23.9106 4.913 20.1244 4.913 15.9454Z" fill="#F8B805"/>
</g>
<g style="mix-blend-mode:multiply" opacity="0.5">
<path d="M32.3731 6.15039C34.034 8.6239 35.0073 11.5975 35.0073 14.8032C35.0073 23.3667 28.0601 30.314 19.4876 30.314C14.4424 30.314 9.95081 27.903 7.12012 24.1704C9.90616 28.3137 14.6389 31.0373 20.0056 31.0373C28.5691 31.0373 35.5163 24.09 35.5163 15.5176C35.5163 11.9993 34.3465 8.74891 32.3731 6.15039Z" fill="#F8B805"/>
</g>
<g style="mix-blend-mode:multiply" opacity="0.5">
<path d="M33.4967 15.5176C33.4967 8.06133 27.4603 2.0249 20.004 2.0249C12.5478 2.0249 6.50244 8.06133 6.50244 15.5176C6.50244 22.9738 12.5478 29.0192 20.004 29.0192C27.4603 29.0192 33.4967 22.9738 33.4967 15.5176Z" fill="#F8B805"/>
</g>
<path d="M32.6936 15.5181C32.6936 8.50834 27.0143 2.8291 20.0046 2.8291C12.9948 2.8291 7.30664 8.50834 7.30664 15.5181C7.30664 22.5279 12.9948 28.2071 20.0046 28.2071C27.0143 28.2071 32.6936 22.5279 32.6936 15.5181Z" fill="#F8B805"/>
<path d="M31.8899 15.5173C31.8899 8.95403 26.5679 3.62305 20.0046 3.62305C13.4324 3.62305 8.11035 8.95403 8.11035 15.5173C8.11035 22.0895 13.4324 27.4116 20.0046 27.4116C26.5679 27.4116 31.8899 22.0895 31.8899 15.5173Z" fill="#F8B805"/>
<g style="mix-blend-mode:multiply" opacity="0.5">
<path d="M20.4326 25.1007C20.6469 25.3447 20.8702 25.5829 21.1023 25.815C21.2274 25.94 21.3881 26.0293 21.5845 26.0918C21.6738 26.1276 21.781 26.1544 21.8792 26.1633C21.9864 26.1752 22.0965 26.1782 22.2096 26.1722C22.3257 26.1722 22.4418 26.1633 22.5489 26.1365C22.662 26.1127 22.7752 26.0829 22.8883 26.0472C23.1204 25.9758 23.3347 25.8507 23.5223 25.7168C23.2365 25.5293 22.9686 25.3507 22.7007 25.1453C22.5579 25.0382 22.3971 24.9667 22.2185 24.9221C22.0399 24.8685 21.8435 24.8328 21.6381 24.8417C21.4417 24.8417 21.2363 24.8506 21.0309 24.8953C20.8255 24.9399 20.6291 25.0024 20.4326 25.1007Z" fill="#F8B805"/>
<path d="M22.2188 23.7079C22.2992 23.4043 22.3617 23.0828 22.4153 22.7882C22.0492 22.7792 21.7009 22.8775 21.4062 23.0471C21.1205 23.2257 20.8705 23.4757 20.7454 23.7883C20.6323 24.074 20.5014 24.3627 20.3525 24.6544C20.5579 24.6991 20.7633 24.708 20.9687 24.6812C21.1651 24.6455 21.3616 24.5919 21.5402 24.4937C21.7098 24.4044 21.8616 24.2883 21.9777 24.1544C22.0938 24.0204 22.1742 23.8686 22.2188 23.7079Z" fill="#F8B805"/>
<path d="M22.6211 24.5736C22.8592 24.7522 23.1063 24.9279 23.3623 25.1005C23.4962 25.1898 23.6569 25.2434 23.8355 25.2612C23.9248 25.2731 24.0201 25.2761 24.1213 25.2702C24.2195 25.2702 24.3177 25.2523 24.4159 25.2255C24.5172 25.2077 24.6154 25.1779 24.7106 25.1362C24.8178 25.1005 24.9071 25.0469 25.0053 24.9933C25.1006 24.9398 25.1899 24.8802 25.2732 24.8147C25.3565 24.7493 25.4369 24.6749 25.5143 24.5915C25.3714 24.532 25.2285 24.4724 25.0857 24.4129C24.9517 24.3504 24.8089 24.279 24.6749 24.2165C24.532 24.145 24.3713 24.1093 24.2016 24.0914C24.023 24.0736 23.8445 24.0825 23.6659 24.1182C23.4873 24.154 23.2997 24.2075 23.1301 24.2879C22.9515 24.3593 22.7818 24.4576 22.6211 24.5736Z" fill="#F8B805"/>
<path d="M23.9967 22.9931C24.0056 22.8503 24.0146 22.7074 24.0146 22.5556C24.0146 22.4127 24.0146 22.2698 24.0146 22.127C23.9312 22.1389 23.8508 22.1597 23.7735 22.1895C23.6901 22.2133 23.6127 22.243 23.5413 22.2788C23.4698 22.3145 23.3984 22.3591 23.3359 22.4038C23.2645 22.4454 23.199 22.4931 23.1394 22.5466C23.0799 22.6002 23.0263 22.6568 22.9787 22.7163C22.9251 22.7758 22.8775 22.8383 22.8358 22.9038C22.7555 23.0288 22.7019 23.1806 22.6662 23.3325C22.6126 23.6122 22.5471 23.898 22.4697 24.1897C22.6572 24.1897 22.8448 24.154 23.0323 24.1004C23.202 24.029 23.3716 23.9397 23.5145 23.8325C23.6484 23.7164 23.7645 23.5825 23.8538 23.4485C23.9342 23.3057 23.9788 23.1449 23.9967 22.9931Z" fill="#F8B805"/>
<path d="M24.6377 23.6361C24.8818 23.7552 25.1318 23.8683 25.3878 23.9755C25.5307 24.029 25.6825 24.0469 25.8432 24.038C26.0129 24.029 26.1915 23.9844 26.3522 23.904C26.6915 23.7612 27.0219 23.4933 27.2273 23.1629C26.9505 23.1004 26.6736 23.0289 26.4147 22.9575C26.1379 22.8861 25.7985 22.9128 25.4949 23.0468C25.3342 23.1004 25.1824 23.1807 25.0395 23.2879C24.8877 23.3772 24.7538 23.4933 24.6377 23.6361Z" fill="#F8B805"/>
<path d="M25.5935 21.9753C25.5577 21.7074 25.522 21.4484 25.4685 21.1895C25.1738 21.2966 24.9327 21.4841 24.7452 21.7163C24.6648 21.8413 24.5844 21.9574 24.5308 22.0913C24.4862 22.2253 24.4594 22.3682 24.4594 22.511C24.4594 22.773 24.4505 23.0409 24.4326 23.3147C24.6023 23.279 24.763 23.2165 24.9148 23.1361C25.0577 23.0468 25.1916 22.9307 25.2988 22.8057C25.5131 22.5557 25.6292 22.261 25.5935 21.9753Z" fill="#F8B805"/>
<path d="M26.4692 22.2702C26.7103 22.3327 26.9514 22.3863 27.2015 22.4399C27.3265 22.4577 27.4694 22.4488 27.6122 22.4131C27.7551 22.3774 27.9069 22.3059 28.0409 22.2077C28.3177 22.0291 28.5498 21.7344 28.6749 21.404C28.4248 21.3951 28.1748 21.3772 27.9248 21.3594C27.6658 21.3415 27.3711 21.4219 27.1211 21.5915C26.9961 21.6719 26.8711 21.7701 26.7639 21.8862C26.6568 22.0023 26.5496 22.1273 26.4692 22.2702Z" fill="#F8B805"/>
<path d="M27.0318 20.6186C26.9514 20.3864 26.88 20.1632 26.7907 19.9399C26.5407 20.0828 26.3531 20.3061 26.2281 20.5472C26.1984 20.6067 26.1745 20.6692 26.1567 20.7347C26.1329 20.7942 26.115 20.8567 26.1031 20.9222C26.0763 21.0472 26.0763 21.1812 26.1031 21.3062C26.1567 21.5383 26.1924 21.7794 26.2281 22.0295C26.371 21.967 26.5139 21.8777 26.621 21.7794C26.7371 21.6723 26.8353 21.5473 26.9157 21.4223C27.0496 21.1544 27.1121 20.8686 27.0318 20.6186Z" fill="#F8B805"/>
<path d="M27.9346 20.6362C28.1578 20.6541 28.3811 20.663 28.6043 20.663C28.8365 20.663 29.0954 20.538 29.3008 20.3237C29.408 20.2255 29.4973 20.1004 29.5776 19.9576C29.6491 19.8236 29.7026 19.6718 29.7294 19.52C29.5032 19.5498 29.28 19.5766 29.0597 19.6004C28.8275 19.6182 28.5864 19.7433 28.39 19.9308C28.2918 20.029 28.2025 20.1362 28.1221 20.2522C28.0507 20.3773 27.9792 20.5023 27.9346 20.6362Z" fill="#F8B805"/>
<path d="M28.1486 19.0914C28.0474 18.8949 27.9432 18.7074 27.836 18.5288C27.4521 18.8681 27.2735 19.4218 27.4431 19.8504C27.5324 20.0558 27.6039 20.2522 27.6753 20.4665C27.7914 20.3862 27.8985 20.2879 27.9878 20.1808C28.0682 20.0647 28.1307 19.9397 28.1754 19.8147C28.2557 19.5557 28.2557 19.2968 28.1486 19.0914Z" fill="#F8B805"/>
<path d="M29.0146 18.8145C29.2111 18.7906 29.4076 18.7609 29.604 18.7252C29.8094 18.6894 30.0058 18.5376 30.1576 18.3323C30.2291 18.2251 30.2916 18.1001 30.3362 17.9751C30.3541 17.9096 30.369 17.8441 30.3809 17.7786C30.3928 17.7072 30.3987 17.6387 30.3987 17.5732C30.2112 17.6268 30.0237 17.6893 29.8272 17.734C29.4254 17.8501 29.095 18.3144 29.0146 18.8145Z" fill="#F8B805"/>
<path d="M28.961 17.4393C28.8449 17.2875 28.7199 17.1357 28.5949 16.9839C28.5592 17.0315 28.5294 17.0821 28.5056 17.1357C28.4758 17.1833 28.449 17.2339 28.4252 17.2875C28.3836 17.3887 28.3568 17.4959 28.3449 17.609C28.3181 17.8233 28.3538 18.0465 28.4699 18.2162C28.5711 18.3769 28.6693 18.5406 28.7646 18.7073C28.8539 18.6269 28.9342 18.5198 28.9878 18.4126C29.0414 18.2965 29.0771 18.1805 29.095 18.0644C29.1009 18.0048 29.1039 17.9453 29.1039 17.8858C29.1039 17.8322 29.0979 17.7786 29.086 17.725C29.0592 17.6179 29.0235 17.5197 28.961 17.4393Z" fill="#F8B805"/>
<path d="M29.7117 16.9301C29.8725 16.8765 30.0332 16.82 30.1939 16.7605C30.2832 16.7247 30.3636 16.6712 30.435 16.5997C30.5065 16.5283 30.5601 16.439 30.6136 16.3408C30.6583 16.2425 30.694 16.1264 30.7119 16.0104C30.7297 15.8943 30.7297 15.7782 30.7119 15.6621C30.5511 15.7395 30.3964 15.8139 30.2475 15.8854C30.0868 15.9568 29.935 16.1086 29.8457 16.2961C29.8219 16.3437 29.804 16.3943 29.7921 16.4479C29.7683 16.4955 29.7504 16.5461 29.7385 16.5997C29.7147 16.7069 29.7058 16.817 29.7117 16.9301Z" fill="#F8B805"/>
<path d="M29.4528 15.7514C29.3278 15.6383 29.2028 15.5252 29.0777 15.4121C29.0301 15.5074 28.9944 15.6026 28.9706 15.6979C28.9527 15.7961 28.9438 15.8943 28.9527 15.9925C28.9527 16.0908 28.9795 16.1801 29.0063 16.2694C29.042 16.3497 29.0867 16.4301 29.1492 16.4926C29.2623 16.6176 29.3724 16.7456 29.4796 16.8766C29.5421 16.7873 29.5867 16.689 29.6224 16.5819C29.6492 16.4837 29.6671 16.3765 29.6582 16.2694C29.6492 16.064 29.5867 15.8765 29.4528 15.7514Z" fill="#F8B805"/>
<path d="M30.0048 15.4214C30.1298 15.3589 30.2548 15.2874 30.3888 15.216C30.5227 15.1446 30.6299 15.0017 30.6924 14.8231C30.7459 14.6445 30.7549 14.4391 30.7013 14.2427C30.5763 14.323 30.4513 14.4034 30.3262 14.4838C30.1923 14.5641 30.103 14.707 30.0405 14.8677C29.978 15.0374 29.9691 15.2339 30.0048 15.4214Z" fill="#F8B805"/>
<path d="M29.6474 14.4571C29.5314 14.3678 29.4242 14.2874 29.2992 14.207C29.2367 14.3678 29.2188 14.5464 29.2545 14.716C29.2813 14.8768 29.3528 15.0196 29.4688 15.1179C29.5849 15.2072 29.6921 15.3054 29.7992 15.4036C29.8885 15.2339 29.9064 15.0375 29.8796 14.8678C29.8528 14.6982 29.7725 14.5464 29.6474 14.4571Z" fill="#F8B805"/>
<path d="M29.8539 12.5898C29.7735 12.697 29.7199 12.8309 29.6842 12.9827C29.6485 13.1346 29.6217 13.3131 29.6306 13.4917C29.6396 13.59 29.6485 13.6793 29.6664 13.7596C29.6783 13.8489 29.6991 13.9293 29.7289 14.0007C29.7824 14.1525 29.8539 14.2775 29.9342 14.3758C30.0325 14.2865 30.1039 14.1615 30.1575 14.0007C30.1873 13.9233 30.2081 13.84 30.22 13.7507C30.2289 13.6614 30.2289 13.5632 30.2289 13.4649C30.22 13.2685 30.1843 13.0899 30.1128 12.9381C30.0414 12.7863 29.9521 12.6702 29.8539 12.5898Z" fill="#F8B805"/>
</g>
<g style="mix-blend-mode:multiply" opacity="0.5">
<path d="M19.569 25.0997C19.3606 25.3438 19.1374 25.5819 18.8993 25.8141C18.7743 25.9391 18.6135 26.0284 18.426 26.0909C18.3278 26.1266 18.2296 26.1534 18.1224 26.1623C18.0152 26.1742 17.9051 26.1772 17.792 26.1712C17.6849 26.1712 17.5688 26.1623 17.4527 26.1355C17.3396 26.1117 17.2265 26.0819 17.1134 26.0462C16.8901 25.9748 16.6758 25.8498 16.4883 25.7158C16.774 25.5283 17.0419 25.3497 17.3009 25.1443C17.4438 25.0372 17.6134 24.9657 17.792 24.9211C17.9706 24.8675 18.1671 24.8318 18.3635 24.8407C18.56 24.8407 18.7743 24.8497 18.9707 24.8943C19.1761 24.9389 19.3815 25.0015 19.569 25.0997Z" fill="#F8B805"/>
<path d="M17.7832 23.7069C17.7029 23.4033 17.6493 23.0819 17.5957 22.7872C17.9618 22.7783 18.3011 22.8765 18.5958 23.0461C18.8905 23.2247 19.1316 23.4748 19.2566 23.7873C19.3757 24.073 19.5066 24.3618 19.6495 24.6535C19.4531 24.6981 19.2388 24.7071 19.0423 24.6803C18.8369 24.6445 18.6405 24.591 18.4708 24.4927C18.3011 24.4034 18.1493 24.2874 18.0243 24.1534C17.9082 24.0195 17.8279 23.8677 17.7832 23.7069Z" fill="#F8B805"/>
<path d="M17.3809 24.5741C17.1487 24.7527 16.9046 24.9283 16.6486 25.101C16.5147 25.1903 16.3539 25.2439 16.1664 25.2617C16.0771 25.2736 15.9849 25.2766 15.8896 25.2706C15.7914 25.2706 15.6932 25.2528 15.5949 25.226C15.4937 25.2081 15.3925 25.1784 15.2913 25.1367C15.1931 25.101 15.0949 25.0474 15.0056 24.9938C14.9103 24.9403 14.818 24.8807 14.7288 24.8152C14.6454 24.7498 14.568 24.6753 14.4966 24.592C14.6395 24.5325 14.7794 24.4729 14.9163 24.4134C15.0591 24.3509 15.1931 24.2795 15.327 24.217C15.4699 24.1455 15.6396 24.1098 15.8092 24.0919C15.9789 24.0741 16.1575 24.083 16.3361 24.1187C16.5236 24.1544 16.7022 24.208 16.8808 24.2884C17.0594 24.3598 17.229 24.4581 17.3809 24.5741Z" fill="#F8B805"/>
<path d="M16.0146 22.9936C16.0057 22.8507 15.9967 22.7079 15.9967 22.5561C15.9908 22.4132 15.9878 22.2703 15.9878 22.1274C16.0771 22.1393 16.1604 22.1602 16.2378 22.1899C16.3152 22.2138 16.3896 22.2435 16.4611 22.2792C16.5414 22.315 16.6039 22.3596 16.6754 22.4043C16.7409 22.4459 16.8034 22.4936 16.8629 22.5471C16.9224 22.6007 16.979 22.6573 17.0326 22.7168C17.0802 22.7763 17.1248 22.8388 17.1665 22.9043C17.2469 23.0293 17.3094 23.1811 17.3362 23.3329C17.3897 23.6127 17.4552 23.8985 17.5326 24.1902C17.3451 24.1902 17.1576 24.1545 16.979 24.1009C16.8004 24.0295 16.6397 23.9402 16.4968 23.833C16.3539 23.7169 16.2378 23.583 16.1575 23.449C16.0682 23.3062 16.0235 23.1454 16.0146 22.9936Z" fill="#F8B805"/>
<path d="M15.3639 23.6361C15.1198 23.7552 14.8698 23.8683 14.6138 23.9755C14.4798 24.029 14.328 24.0469 14.1584 24.038C13.9976 24.029 13.819 23.9844 13.6494 23.904C13.3101 23.7612 12.9886 23.4933 12.7832 23.1629C13.0511 23.1004 13.3279 23.0289 13.5958 22.9575C13.8726 22.8861 14.203 22.9128 14.5155 23.0468C14.6763 23.1004 14.8281 23.1807 14.971 23.2879C15.1138 23.3772 15.2478 23.4933 15.3639 23.6361Z" fill="#F8B805"/>
<path d="M14.4172 21.9753C14.444 21.7074 14.4797 21.4484 14.5333 21.1895C14.828 21.2966 15.078 21.4841 15.2566 21.7163C15.3459 21.8413 15.4173 21.9574 15.4709 22.0913C15.5245 22.2253 15.5513 22.3682 15.5513 22.511C15.5513 22.773 15.5572 23.0409 15.5692 23.3147C15.4084 23.279 15.2388 23.2165 15.087 23.1361C14.9441 23.0468 14.8101 22.9307 14.703 22.8057C14.4976 22.5557 14.3726 22.261 14.4172 21.9753Z" fill="#F8B805"/>
<path d="M13.5328 22.2702C13.3006 22.3327 13.0506 22.3863 12.8005 22.4399C12.6755 22.4577 12.5326 22.4488 12.3898 22.4131C12.2469 22.3774 12.104 22.3059 11.9701 22.2077C11.6933 22.0291 11.4522 21.7344 11.3271 21.404C11.5772 21.3951 11.8361 21.3772 12.0862 21.3594C12.3362 21.3415 12.6309 21.4219 12.8809 21.5915C13.0148 21.6719 13.1399 21.7701 13.247 21.8862C13.3542 22.0023 13.4524 22.1273 13.5328 22.2702Z" fill="#F8B805"/>
<path d="M12.9794 20.6186C13.0508 20.3864 13.1312 20.1632 13.2115 19.9399C13.4616 20.0828 13.6491 20.3061 13.7741 20.5472C13.8039 20.6067 13.8307 20.6692 13.8545 20.7347C13.8783 20.7942 13.8961 20.8567 13.908 20.9222C13.9259 21.0472 13.9259 21.1812 13.8991 21.3062C13.8545 21.5383 13.8098 21.7794 13.7741 22.0295C13.6312 21.967 13.4973 21.8777 13.3812 21.7794C13.2651 21.6723 13.1669 21.5473 13.0955 21.4223C12.9526 21.1544 12.899 20.8686 12.9794 20.6186Z" fill="#F8B805"/>
<path d="M12.0772 20.6362C11.854 20.6541 11.6307 20.663 11.4075 20.663C11.1753 20.663 10.9164 20.538 10.7021 20.3237C10.6038 20.2255 10.5056 20.1004 10.4342 19.9576C10.3627 19.8236 10.3092 19.6718 10.2734 19.52C10.4997 19.5498 10.7229 19.5766 10.9432 19.6004C11.1843 19.6182 11.4254 19.7433 11.6129 19.9308C11.72 20.029 11.8093 20.1362 11.8808 20.2522C11.9611 20.3773 12.0326 20.5023 12.0772 20.6362Z" fill="#F8B805"/>
<path d="M11.8536 19.0914C11.9608 18.8949 12.0679 18.7074 12.1751 18.5288C12.559 18.8681 12.7376 19.4218 12.559 19.8504C12.4787 20.0558 12.3983 20.2522 12.3269 20.4665C12.2108 20.3862 12.1036 20.2879 12.0233 20.1808C11.9429 20.0647 11.8715 19.9397 11.8268 19.8147C11.7465 19.5557 11.7465 19.2968 11.8536 19.0914Z" fill="#F8B805"/>
<path d="M10.9881 18.8145C10.7976 18.7906 10.6011 18.7609 10.3987 18.7252C10.1934 18.6894 10.0058 18.5376 9.8451 18.3323C9.77367 18.2251 9.72009 18.1001 9.67544 17.9751C9.65163 17.9096 9.63377 17.8441 9.62186 17.7786C9.60996 17.7072 9.604 17.6387 9.604 17.5732C9.80046 17.6268 9.98798 17.6893 10.1755 17.734C10.5863 17.8501 10.9167 18.3144 10.9881 18.8145Z" fill="#F8B805"/>
<path d="M11.0507 17.4393C11.1668 17.2875 11.2829 17.1357 11.4079 16.9839C11.4436 17.0315 11.4764 17.0821 11.5061 17.1357C11.5359 17.1833 11.5627 17.2339 11.5865 17.2875C11.6282 17.3887 11.652 17.4959 11.6579 17.609C11.6937 17.8233 11.649 18.0465 11.5419 18.2162C11.4407 18.3769 11.3395 18.5406 11.2383 18.7073C11.149 18.6269 11.0775 18.5198 11.015 18.4126C10.9704 18.2965 10.9346 18.1805 10.9168 18.0644C10.9049 18.0048 10.8989 17.9453 10.8989 17.8858C10.9049 17.8322 10.9108 17.7786 10.9168 17.725C10.9436 17.6179 10.9882 17.5197 11.0507 17.4393Z" fill="#F8B805"/>
<path d="M10.2917 16.9301C10.131 16.8765 9.97023 16.82 9.80949 16.7605C9.72913 16.7247 9.64876 16.6712 9.57732 16.5997C9.50588 16.5283 9.44338 16.439 9.39873 16.3408C9.35408 16.2425 9.30943 16.1264 9.3005 16.0104C9.28264 15.8943 9.28264 15.7782 9.3005 15.6621C9.45528 15.7395 9.61006 15.8139 9.76484 15.8854C9.92558 15.9568 10.0685 16.1086 10.1577 16.2961C10.1816 16.3437 10.2024 16.3943 10.2203 16.4479C10.2381 16.4955 10.253 16.5461 10.2649 16.5997C10.2887 16.7069 10.2976 16.817 10.2917 16.9301Z" fill="#F8B805"/>
<path d="M10.5504 15.7505C10.6754 15.6374 10.8005 15.5242 10.9255 15.4111C10.9791 15.5064 11.0148 15.6016 11.0326 15.6969C11.0505 15.7951 11.0683 15.8933 11.0594 15.9916C11.0505 16.0898 11.0326 16.1791 10.9969 16.2684C10.9701 16.3487 10.9255 16.4291 10.863 16.4916C10.7499 16.6166 10.6368 16.7446 10.5236 16.8756C10.4611 16.7863 10.4165 16.6881 10.3897 16.5809C10.354 16.4827 10.3361 16.3755 10.345 16.2684C10.354 16.063 10.4165 15.8755 10.5504 15.7505Z" fill="#F8B805"/>
<path d="M10.0059 15.4209C9.872 15.3584 9.74699 15.287 9.62197 15.2155C9.48803 15.1441 9.37194 15.0012 9.31836 14.8226C9.26479 14.644 9.25586 14.4386 9.30943 14.2422C9.42552 14.3226 9.55053 14.4029 9.67555 14.4833C9.80949 14.5637 9.90772 14.7065 9.9613 14.8673C10.0238 15.0369 10.0417 15.2334 10.0059 15.4209Z" fill="#F8B805"/>
<path d="M10.3542 14.4566C10.4703 14.3673 10.5864 14.2869 10.7025 14.2065C10.7739 14.3673 10.7918 14.5459 10.7561 14.7155C10.7203 14.8763 10.6489 15.0191 10.5328 15.1174C10.4257 15.2067 10.3096 15.3049 10.2024 15.4031C10.1221 15.2335 10.1042 15.037 10.1221 14.8673C10.1488 14.6977 10.2381 14.5459 10.3542 14.4566Z" fill="#F8B805"/>
<path d="M10.1485 12.5898C10.2288 12.697 10.2914 12.8309 10.3271 12.9827C10.3628 13.1346 10.3807 13.3131 10.3717 13.4917C10.3717 13.59 10.3539 13.6793 10.336 13.7596C10.3241 13.8489 10.3062 13.9293 10.2824 14.0007C10.2288 14.1525 10.1485 14.2775 10.0681 14.3758C9.96989 14.2865 9.89845 14.1615 9.84487 14.0007C9.82106 13.9233 9.8032 13.84 9.7913 13.7507C9.77344 13.6614 9.77344 13.5632 9.77344 13.4649C9.7913 13.2685 9.82702 13.0899 9.89845 12.9381C9.96096 12.7863 10.0503 12.6702 10.1485 12.5898Z" fill="#F8B805"/>
</g>
<g style="mix-blend-mode:multiply" opacity="0.8">
<path d="M18.8984 20.5098C18.6721 20.3074 18.559 19.9919 18.559 19.5633L18.5769 19.34C18.7079 17.9649 18.8656 16.5331 19.0502 15.0449C19.2407 13.5566 19.4014 12.4106 19.5324 11.607L18.1215 12.0445L17.9072 12.0892C17.681 12.0892 17.5024 11.988 17.3714 11.7856C17.2345 11.5891 17.166 11.3629 17.166 11.1069L17.1839 10.9283C17.2077 10.6723 17.2821 10.464 17.4071 10.3032C17.5262 10.1425 17.7554 9.98177 18.0947 9.82104C18.44 9.6603 18.9549 9.48766 19.6395 9.30312L20.3985 9.09774C20.6724 9.03225 20.9016 8.99951 21.0861 8.99951C21.4314 8.99951 21.6904 9.10071 21.863 9.30312C22.0416 9.50552 22.1309 9.78532 22.1309 10.1425C22.1309 10.3032 22.113 10.4759 22.0773 10.6604C21.8809 11.7082 21.5118 14.6758 20.97 19.5633C20.8748 20.3907 20.4491 20.8045 19.6931 20.8045C19.3954 20.8045 19.1305 20.7062 18.8984 20.5098Z" fill="#F8B805"/>
<path d="M18.8984 20.5098C18.6721 20.3074 18.559 19.9919 18.559 19.5633L18.5769 19.34C18.7079 17.9649 18.8656 16.5331 19.0502 15.0449C19.2407 13.5566 19.4014 12.4106 19.5324 11.607L18.1215 12.0445L17.9072 12.0892C17.681 12.0892 17.5024 11.988 17.3714 11.7856C17.2345 11.5891 17.166 11.3629 17.166 11.1069L17.1839 10.9283C17.2077 10.6723 17.2821 10.464 17.4071 10.3032C17.5262 10.1425 17.7554 9.98177 18.0947 9.82104C18.44 9.6603 18.9549 9.48766 19.6395 9.30312L20.3985 9.09774C20.6724 9.03225 20.9016 8.99951 21.0861 8.99951C21.4314 8.99951 21.6904 9.10071 21.863 9.30312C22.0416 9.50552 22.1309 9.78532 22.1309 10.1425C22.1309 10.3032 22.113 10.4759 22.0773 10.6604C21.8809 11.7082 21.5118 14.6758 20.97 19.5633C20.8748 20.3907 20.4491 20.8045 19.6931 20.8045C19.3954 20.8045 19.1305 20.7062 18.8984 20.5098Z" fill="black" fill-opacity="0.2"/>
</g>
<g style="mix-blend-mode:multiply" opacity="0.4">
<path d="M26.8627 6.98096L26.7466 7.82927L27.3806 8.4097L26.5323 8.5615L26.1751 9.34731L25.7733 8.58829L24.916 8.49006L25.5143 7.87392L25.3357 7.02561L26.1126 7.40065L26.8627 6.98096Z" fill="#F8B805"/>
</g>
<g style="mix-blend-mode:multiply" opacity="0.4">
<path d="M23.6123 5.38232L23.7731 6.23064L24.5499 6.57889L23.7909 6.98966L23.7016 7.8469L23.0766 7.24862L22.2372 7.42721L22.6122 6.65033L22.1836 5.90024L23.0408 6.01633L23.6123 5.38232Z" fill="#F8B805"/>
</g>
<g style="mix-blend-mode:multiply" opacity="0.4">
<path d="M20.0414 4.86426L20.4433 5.62328L21.3005 5.7215L20.7022 6.33765L20.8808 7.18596L20.1039 6.81092L19.3539 7.23061L19.4699 6.38229L18.8359 5.80187L19.6843 5.65007L20.0414 4.86426Z" fill="#F8B805"/>
</g>
<g style="mix-blend-mode:multiply" opacity="0.4">
<path d="M16.4779 5.47998L17.094 6.06933L17.9423 5.89967L17.5673 6.67655L17.987 7.42664L17.1386 7.30162L16.5582 7.94456L16.4064 7.09624L15.6206 6.73906L16.3796 6.32829L16.4779 5.47998Z" fill="#F8B805"/>
</g>
<g style="mix-blend-mode:multiply" opacity="0.4">
<path d="M13.2722 7.15891L14.0491 7.53395L14.7992 7.11426L14.6831 7.96257L15.3171 8.543L14.4688 8.6948L14.1205 9.48061L13.7098 8.72159L12.8525 8.62337L13.4508 8.00722L13.2722 7.15891Z" fill="#F8B805"/>
</g>
<g style="mix-blend-mode:multiply" opacity="0.4">
<path d="M12.6297 10.1059C12.6297 9.86477 12.4333 9.67725 12.2011 9.67725C11.96 9.67725 11.7725 9.86477 11.7725 10.1059C11.7725 10.338 11.96 10.5345 12.2011 10.5345C12.4333 10.5345 12.6297 10.338 12.6297 10.1059Z" fill="#F8B805"/>
</g>
<g style="mix-blend-mode:multiply" opacity="0.4">
<path d="M28.6668 10.1059C28.6668 9.86477 28.4704 9.67725 28.2382 9.67725C27.9971 9.67725 27.8096 9.86477 27.8096 10.1059C27.8096 10.338 27.9971 10.5345 28.2382 10.5345C28.4704 10.5345 28.6668 10.338 28.6668 10.1059Z" fill="#F8B805"/>
</g>
<g style="mix-blend-mode:screen" opacity="0.3">
<path d="M20.0046 3.62305C19.7367 3.62305 19.4688 3.63198 19.2009 3.64984L8.13714 14.7136C8.11928 14.9815 8.11035 15.2494 8.11035 15.5173C8.11035 17.5354 8.61041 19.4285 9.49444 21.0983L25.5767 5.01607C23.9158 4.13203 22.0138 3.62305 20.0046 3.62305Z" fill="#F8B805"/>
</g>
<g style="mix-blend-mode:screen" opacity="0.3">
<path d="M26.7201 5.70361L10.1914 22.2323C10.7093 22.9914 11.3165 23.6879 11.9863 24.304L28.7918 7.5074C28.1757 6.82875 27.4792 6.22153 26.7201 5.70361Z" fill="#F8B805"/>
</g>
<g style="mix-blend-mode:screen" opacity="0.3">
<path d="M31.8893 15.5181C31.8893 14.9288 31.8476 14.3484 31.7643 13.7769L18.2627 27.2874C18.8282 27.3707 19.4087 27.4124 20.004 27.4124C21.3166 27.4124 22.5757 27.1981 23.7633 26.8052L31.2821 19.2775C31.6839 18.0988 31.8893 16.8308 31.8893 15.5181Z" fill="#F8B805"/>
</g>
<path fill-rule="evenodd" clip-rule="evenodd" d="M20.0054 27.5538C13.3618 27.5538 7.96826 22.1513 7.96826 15.5166C7.96826 8.88192 13.3618 3.47949 20.0054 3.47949C26.6401 3.47949 32.0425 8.88192 32.0425 15.5166C32.0425 22.1513 26.6401 27.5538 20.0054 27.5538ZM20.0054 3.77417C13.5225 3.77417 8.25401 9.04265 8.25401 15.5166C8.25401 21.9906 13.5225 27.268 20.0054 27.268C26.4794 27.268 31.7479 21.9906 31.7479 15.5166C31.7479 9.04265 26.4794 3.77417 20.0054 3.77417Z" fill="#F8B805"/>
<g style="mix-blend-mode:screen" opacity="0.5">
<path fill-rule="evenodd" clip-rule="evenodd" d="M20.0054 27.5538C13.3618 27.5538 7.96826 22.1513 7.96826 15.5166C7.96826 8.88192 13.3618 3.47949 20.0054 3.47949C26.6401 3.47949 32.0425 8.88192 32.0425 15.5166C32.0425 22.1513 26.6401 27.5538 20.0054 27.5538ZM20.0054 3.77417C13.5225 3.77417 8.25401 9.04265 8.25401 15.5166C8.25401 21.9906 13.5225 27.268 20.0054 27.268C26.4794 27.268 31.7479 21.9906 31.7479 15.5166C31.7479 9.04265 26.4794 3.77417 20.0054 3.77417Z" fill="#F8B805"/>
</g>
<path d="M12.6915 7.83039C11.1378 7.27675 10.7091 6.8392 10.1912 5.20508C9.66436 6.8392 9.24467 7.27675 7.69092 7.83039C9.24467 8.38402 9.66436 8.83051 10.1912 10.4557C10.7091 8.83051 11.1378 8.38402 12.6915 7.83039Z" fill="white"/>
<path d="M30.5061 22.5103C29.0328 21.9923 28.6309 21.5637 28.1398 20.0278C27.6397 21.5637 27.2468 21.9923 25.7734 22.5103C27.2468 23.0282 27.6397 23.4479 28.1398 24.9927C28.6309 23.4479 29.0328 23.0282 30.5061 22.5103Z" fill="white"/>
<path d="M31.6666 24.9934C30.9433 24.7344 30.7468 24.529 30.5057 23.77C30.2557 24.529 30.0592 24.7344 29.3359 24.9934C30.0592 25.2523 30.2557 25.4577 30.5057 26.2167C30.7468 25.4577 30.9433 25.2523 31.6666 24.9934Z" fill="white"/>
<path d="M14.0308 4.8568C13.3075 4.59784 13.1111 4.39246 12.861 3.62451C12.6199 4.39246 12.4235 4.59784 11.7002 4.8568C12.4235 5.10683 12.6199 5.32114 12.861 6.08016C13.1111 5.32114 13.3075 5.10683 14.0308 4.8568Z" fill="white"/>
</svg>
