<svg width="40" height="44" viewBox="0 0 40 44" fill="none" xmlns="http://www.w3.org/2000/svg">
<path d="M21.0187 16.3774L14.4394 19.2349L6.72645 40.3624C6.69074 40.4428 6.77109 40.5231 6.86036 40.5053L12.8683 38.7283L16.3141 43.9521C16.3587 44.0236 16.4748 44.0146 16.5016 43.9343L24.2146 22.8068L21.0187 16.3774Z" fill="#25AEF2"/>
<g style="mix-blend-mode:multiply" opacity="0.5">
<path d="M21.0187 16.3774L14.4394 19.2349L6.72645 40.3624C6.69074 40.4428 6.77109 40.5231 6.86036 40.5053L12.8683 38.7283L16.3141 43.9521C16.3587 44.0236 16.4748 44.0146 16.5016 43.9343L24.2146 22.8068L21.0187 16.3774Z" fill="#25AEF2"/>
</g>
<g style="mix-blend-mode:multiply" opacity="0.5">
<path d="M23.1337 20.6274L20.0003 21.5293L18.688 37.9331L24.2138 22.8063L23.1337 20.6274Z" fill="#1BAFDD"/>
</g>
<path d="M34.7928 39.4152L25.348 19.1182L18.5456 16.8232L15.9121 23.5026L25.348 43.7996C25.4016 43.9157 25.5712 43.9247 25.6337 43.8086L28.4635 38.5312L34.6143 39.6474C34.7393 39.6652 34.8464 39.5402 34.7928 39.4152Z" fill="#25AEF2"/>
<g style="mix-blend-mode:multiply" opacity="0.3">
<path d="M20.0006 31.8882C23.6696 31.8882 27.0441 30.6113 29.7043 28.486L25.3479 19.1188L21.786 17.9133L21.0183 16.3774L19.3579 17.1007L18.5455 16.8239L18.242 17.5829L14.4391 19.2349L10.895 28.9325C13.4482 30.7988 16.5994 31.8882 20.0006 31.8882Z" fill="#1BAFDD"/>
</g>
<path d="M35.5138 15.5192C35.5138 6.94676 28.5686 -0.000488281 19.9986 -0.000488281C11.4286 -0.000488281 4.4834 6.94676 4.4834 15.5192C4.4834 24.0916 11.4286 31.0389 19.9986 31.0389C28.5686 31.0389 35.5138 24.0916 35.5138 15.5192Z" fill="#EA6C3B"/>
<g style="mix-blend-mode:screen" opacity="0.5">
<path d="M4.91189 15.9478C4.91189 7.37538 11.8571 0.428134 20.4271 0.428134C24.605 0.428134 28.3901 2.08012 31.1842 4.76793C28.3543 1.83009 24.3907 -0.000488281 19.9986 -0.000488281C11.4286 -0.000488281 4.4834 6.94676 4.4834 15.5192C4.4834 19.9126 6.31345 23.8773 9.25045 26.708C6.5634 23.913 4.91189 20.1269 4.91189 15.9478Z" fill="#EA6C3B"/>
</g>
<g style="mix-blend-mode:multiply" opacity="0.5">
<path d="M32.3628 6.15234C34.0321 8.62585 34.9962 11.5994 34.9962 14.8051C34.9962 23.3687 28.051 30.3159 19.4899 30.3159C14.4372 30.3159 9.95585 27.9049 7.12598 24.1723C9.91122 28.3157 14.6336 31.0392 19.9988 31.0392C28.5688 31.0392 35.514 24.092 35.514 15.5195C35.514 12.0012 34.3356 8.75086 32.3628 6.15234Z" fill="#EA6C3B"/>
</g>
<g style="mix-blend-mode:multiply" opacity="0.5">
<path d="M33.4967 15.5195C33.4967 8.06328 27.4531 2.02686 19.999 2.02686C12.5449 2.02686 6.51025 8.06328 6.51025 15.5195C6.51025 22.9758 12.5449 29.0211 19.999 29.0211C27.4531 29.0211 33.4967 22.9758 33.4967 15.5195Z" fill="#EA6C3B"/>
</g>
<path d="M32.6847 15.5196C32.6847 8.50981 27.0071 2.83057 19.9993 2.83057C12.9916 2.83057 7.31396 8.50981 7.31396 15.5196C7.31396 22.5293 12.9916 28.2086 19.9993 28.2086C27.0071 28.2086 32.6847 22.5293 32.6847 15.5196Z" fill="#EA6C3B"/>
<path d="M31.8896 15.5193C31.8896 8.95599 26.5691 3.625 19.9987 3.625C13.4374 3.625 8.10791 8.95599 8.10791 15.5193C8.10791 22.0915 13.4374 27.4135 19.9987 27.4135C26.5691 27.4135 31.8896 22.0915 31.8896 15.5193Z" fill="#EA6C3B"/>
<g style="mix-blend-mode:multiply" opacity="0.7">
<path d="M23.5522 15.6694C23.9449 16.1219 24.1413 16.6874 24.1413 17.3661C24.1413 18.0209 23.9628 18.5775 23.6057 19.0359C23.2486 19.5002 22.7695 19.8485 22.1685 20.0807C21.5614 20.3188 20.9008 20.4379 20.1867 20.4379C18.9309 20.4379 17.9906 20.1938 17.3657 19.7056C16.7349 19.2234 16.4194 18.6162 16.4194 17.884C16.4194 17.4613 16.5117 17.1309 16.6962 16.8928C16.8807 16.6547 17.1276 16.5356 17.4371 16.5356C17.7049 16.5356 17.9043 16.61 18.0352 16.7589C18.1662 16.9077 18.2792 17.1607 18.3745 17.5179C18.4518 17.8631 18.6185 18.1251 18.8744 18.3037C19.1303 18.4823 19.5231 18.5716 20.0528 18.5716C20.5586 18.5716 20.9752 18.4674 21.3025 18.259C21.6299 18.0447 21.7935 17.7203 21.7935 17.2857C21.7935 16.8392 21.6388 16.5088 21.3293 16.2945C21.0198 16.0862 20.5348 15.9701 19.8742 15.9463C19.6362 15.9284 19.4546 15.8331 19.3297 15.6605C19.2106 15.4879 19.1511 15.2795 19.1511 15.0354C19.1511 14.7318 19.1987 14.5116 19.294 14.3746C19.3951 14.2437 19.5677 14.1514 19.8117 14.0978C20.5675 13.9728 21.1151 13.7258 21.4543 13.3567C21.7935 12.9935 21.9631 12.556 21.9631 12.044C21.9631 11.3356 21.5257 10.9814 20.6509 10.9814C19.6867 10.9814 19.1184 11.4041 18.9458 12.2494C18.8625 12.6006 18.7434 12.8477 18.5887 12.9906C18.434 13.1394 18.2167 13.2138 17.937 13.2138C17.6276 13.2138 17.3895 13.1156 17.2229 12.9191C17.0562 12.7167 16.9729 12.4488 16.9729 12.1154C16.9729 11.6035 17.1336 11.1183 17.455 10.6599C17.7763 10.1956 18.2346 9.82351 18.8297 9.54372C19.4249 9.26392 20.1182 9.12402 20.9097 9.12402C22.0167 9.12402 22.8648 9.35917 23.454 9.82946C24.0431 10.3057 24.3377 11.0112 24.3377 11.9458C24.3377 12.559 24.1265 13.1334 23.7039 13.6692C23.2814 14.199 22.7368 14.5979 22.0703 14.8658C22.6595 14.9551 23.1534 15.223 23.5522 15.6694Z" fill="#EA6C3B"/>
<path d="M23.5522 15.6694C23.9449 16.1219 24.1413 16.6874 24.1413 17.3661C24.1413 18.0209 23.9628 18.5775 23.6057 19.0359C23.2486 19.5002 22.7695 19.8485 22.1685 20.0807C21.5614 20.3188 20.9008 20.4379 20.1867 20.4379C18.9309 20.4379 17.9906 20.1938 17.3657 19.7056C16.7349 19.2234 16.4194 18.6162 16.4194 17.884C16.4194 17.4613 16.5117 17.1309 16.6962 16.8928C16.8807 16.6547 17.1276 16.5356 17.4371 16.5356C17.7049 16.5356 17.9043 16.61 18.0352 16.7589C18.1662 16.9077 18.2792 17.1607 18.3745 17.5179C18.4518 17.8631 18.6185 18.1251 18.8744 18.3037C19.1303 18.4823 19.5231 18.5716 20.0528 18.5716C20.5586 18.5716 20.9752 18.4674 21.3025 18.259C21.6299 18.0447 21.7935 17.7203 21.7935 17.2857C21.7935 16.8392 21.6388 16.5088 21.3293 16.2945C21.0198 16.0862 20.5348 15.9701 19.8742 15.9463C19.6362 15.9284 19.4546 15.8331 19.3297 15.6605C19.2106 15.4879 19.1511 15.2795 19.1511 15.0354C19.1511 14.7318 19.1987 14.5116 19.294 14.3746C19.3951 14.2437 19.5677 14.1514 19.8117 14.0978C20.5675 13.9728 21.1151 13.7258 21.4543 13.3567C21.7935 12.9935 21.9631 12.556 21.9631 12.044C21.9631 11.3356 21.5257 10.9814 20.6509 10.9814C19.6867 10.9814 19.1184 11.4041 18.9458 12.2494C18.8625 12.6006 18.7434 12.8477 18.5887 12.9906C18.434 13.1394 18.2167 13.2138 17.937 13.2138C17.6276 13.2138 17.3895 13.1156 17.2229 12.9191C17.0562 12.7167 16.9729 12.4488 16.9729 12.1154C16.9729 11.6035 17.1336 11.1183 17.455 10.6599C17.7763 10.1956 18.2346 9.82351 18.8297 9.54372C19.4249 9.26392 20.1182 9.12402 20.9097 9.12402C22.0167 9.12402 22.8648 9.35917 23.454 9.82946C24.0431 10.3057 24.3377 11.0112 24.3377 11.9458C24.3377 12.559 24.1265 13.1334 23.7039 13.6692C23.2814 14.199 22.7368 14.5979 22.0703 14.8658C22.6595 14.9551 23.1534 15.223 23.5522 15.6694Z" fill="black" fill-opacity="0.2"/>
</g>
<g style="mix-blend-mode:multiply" opacity="0.5">
<path d="M20.438 24.9842C20.6463 25.2223 20.8695 25.4604 21.1075 25.6986C21.2325 25.8236 21.3932 25.9129 21.5807 25.9754C21.6789 26.0022 21.7771 26.029 21.8842 26.0379C21.9913 26.0498 22.0984 26.0558 22.2056 26.0558C22.3216 26.0468 22.4377 26.0468 22.5537 26.02C22.6668 25.9962 22.7799 25.9665 22.8929 25.9307C23.1161 25.8593 23.3304 25.7343 23.5178 25.5914C23.2322 25.4128 22.9643 25.2253 22.6965 25.0288C22.5626 24.9217 22.393 24.8413 22.2145 24.7967C22.0359 24.752 21.8395 24.7163 21.6431 24.7163C21.4467 24.7163 21.2325 24.7252 21.0361 24.7788C20.8308 24.8235 20.6255 24.886 20.438 24.9842Z" fill="#EA6C3B"/>
<path d="M22.2237 23.5824C22.2951 23.2788 22.3576 22.9662 22.4111 22.6626C22.0451 22.6537 21.7059 22.7609 21.4113 22.9305C21.1167 23.1091 20.8757 23.3502 20.7507 23.6627C20.6317 23.9544 20.5007 24.2461 20.3579 24.5378C20.5543 24.5736 20.7686 24.5825 20.965 24.5557C21.1703 24.52 21.3667 24.4664 21.5363 24.3771C21.7059 24.2789 21.8577 24.1717 21.9737 24.0378C22.0898 23.8949 22.179 23.7431 22.2237 23.5824Z" fill="#EA6C3B"/>
<path d="M22.624 24.4574C22.8561 24.636 23.1001 24.8087 23.356 24.9754C23.49 25.0736 23.6506 25.1182 23.8292 25.145C23.9244 25.1569 24.0196 25.1599 24.1148 25.1539C24.213 25.145 24.3112 25.1272 24.4094 25.1093C24.5106 25.0855 24.6118 25.0557 24.713 25.02C24.8112 24.9843 24.9093 24.9307 24.9986 24.8771C25.0938 24.8236 25.1861 24.764 25.2754 24.6985C25.3587 24.6271 25.436 24.5527 25.5075 24.4753C25.3646 24.4158 25.2248 24.3562 25.0879 24.2967C24.9451 24.2253 24.8112 24.1628 24.6683 24.0913C24.5255 24.0199 24.3648 23.9842 24.1952 23.9752C24.0256 23.9574 23.847 23.9663 23.6685 24.002C23.481 24.0288 23.3025 24.0824 23.1239 24.1628C22.9454 24.2342 22.7758 24.3324 22.624 24.4574Z" fill="#EA6C3B"/>
<path d="M23.9903 22.8771C23.9992 22.7253 24.0081 22.5824 24.0081 22.4395C24.0141 22.2907 24.0141 22.1448 24.0081 22.002C23.9248 22.0198 23.8444 22.0406 23.7671 22.0645C23.6897 22.0883 23.6153 22.118 23.5439 22.1538C23.4636 22.1895 23.4011 22.2341 23.3297 22.2788C23.2642 22.3204 23.2017 22.3681 23.1422 22.4216C23.0827 22.4752 23.0261 22.5348 22.9726 22.6002C22.925 22.6538 22.8803 22.7133 22.8387 22.7788C22.7583 22.9128 22.6958 23.0646 22.669 23.2075C22.6155 23.4932 22.55 23.7789 22.4727 24.0647C22.6601 24.0647 22.8476 24.0379 23.0261 23.9754C23.2047 23.9129 23.3654 23.8236 23.5082 23.7075C23.651 23.6004 23.7671 23.4664 23.8474 23.3235C23.9278 23.1807 23.9813 23.0289 23.9903 22.8771Z" fill="#EA6C3B"/>
<path d="M24.6436 23.5114C24.8816 23.6305 25.1316 23.7436 25.3934 23.8508C25.5273 23.9133 25.6791 23.9311 25.8487 23.9133C26.0094 23.9044 26.1879 23.8686 26.3576 23.7883C26.6968 23.6454 27.0182 23.3686 27.2235 23.0382C26.9557 22.9846 26.6789 22.9132 26.4111 22.8328C26.1344 22.7614 25.8041 22.7971 25.4916 22.9221C25.3309 22.9846 25.1792 23.065 25.0363 23.1632C24.8935 23.2614 24.7596 23.3775 24.6436 23.5114Z" fill="#EA6C3B"/>
<path d="M25.5897 21.8503C25.5629 21.5824 25.5272 21.3234 25.4737 21.0645C25.1791 21.1716 24.9291 21.3681 24.7506 21.6002C24.6613 21.7163 24.5899 21.8413 24.5363 21.9753C24.4828 22.1092 24.456 22.2521 24.456 22.386C24.456 22.6539 24.4471 22.9248 24.4292 23.1986C24.5988 23.1629 24.7684 23.1004 24.9113 23.0111C25.063 22.9218 25.1969 22.8147 25.304 22.6896C25.5094 22.4307 25.6254 22.136 25.5897 21.8503Z" fill="#EA6C3B"/>
<path d="M26.4731 22.145C26.7052 22.2075 26.9552 22.27 27.1962 22.3147C27.3302 22.3415 27.473 22.3325 27.6158 22.2879C27.7586 22.2522 27.9015 22.1897 28.0354 22.0914C28.3121 21.9039 28.5532 21.6092 28.6781 21.2878C28.4282 21.2788 28.1693 21.261 27.9193 21.2342C27.6605 21.2163 27.3748 21.3056 27.1248 21.4753C26.9909 21.5556 26.8659 21.6539 26.7588 21.77C26.6517 21.886 26.5446 22.0021 26.4731 22.145Z" fill="#EA6C3B"/>
<path d="M27.0258 20.5019C26.9544 20.2697 26.8741 20.0465 26.7848 19.8232C26.5438 19.9661 26.3563 20.1804 26.2313 20.4215C26.2016 20.4811 26.1748 20.5436 26.151 20.609C26.1272 20.6745 26.1093 20.737 26.0974 20.7966C26.0796 20.9305 26.0795 21.0555 26.1063 21.1805C26.151 21.4216 26.1956 21.6627 26.2313 21.9038C26.3741 21.8413 26.5081 21.761 26.6241 21.6538C26.7402 21.5467 26.8383 21.4306 26.9098 21.2966C27.0526 21.0287 27.1062 20.7519 27.0258 20.5019Z" fill="#EA6C3B"/>
<path d="M27.9277 20.5205C28.1509 20.5294 28.3741 20.5384 28.5973 20.5384C28.8294 20.5384 29.0883 20.4133 29.3025 20.208C29.4007 20.1008 29.4989 19.9758 29.5703 19.8418C29.6417 19.699 29.6953 19.5561 29.7221 19.4043C29.4959 19.4341 29.2727 19.4579 29.0525 19.4757C28.8204 19.5025 28.5794 19.6275 28.3919 19.8151C28.2848 19.9044 28.1955 20.0115 28.1152 20.1365C28.0438 20.2526 27.9724 20.3776 27.9277 20.5205Z" fill="#EA6C3B"/>
<path d="M28.1503 18.9753C28.0431 18.7789 27.936 18.5884 27.8289 18.4038C27.445 18.7521 27.2665 19.3057 27.445 19.7343C27.5254 19.9308 27.5968 20.1362 27.6771 20.3415C27.7932 20.2701 27.9003 20.1719 27.9806 20.0558C28.061 19.9486 28.1235 19.8236 28.177 19.6986C28.2574 19.4396 28.2574 19.1807 28.1503 18.9753Z" fill="#EA6C3B"/>
<path d="M29.0171 18.6979C29.2075 18.6741 29.401 18.6443 29.5973 18.6086C29.8027 18.5729 29.9991 18.4211 30.1508 18.2068C30.2312 18.0996 30.2847 17.9835 30.3294 17.8496C30.3532 17.7841 30.371 17.7186 30.3829 17.6531C30.3889 17.5877 30.3948 17.5192 30.4008 17.4478C30.2044 17.5103 30.0169 17.5638 29.8295 17.6174C29.4188 17.7246 29.0885 18.1978 29.0171 18.6979Z" fill="#EA6C3B"/>
<path d="M28.9543 17.3142C28.8382 17.1624 28.7221 17.0105 28.5971 16.8677C28.5614 16.9153 28.5287 16.9629 28.4989 17.0106C28.4691 17.0582 28.4423 17.1088 28.4185 17.1624C28.3769 17.2695 28.3501 17.3796 28.3382 17.4927C28.3114 17.7071 28.356 17.9214 28.4632 18.091C28.5644 18.2518 28.6656 18.4185 28.7668 18.5911C28.8561 18.5018 28.9275 18.4036 28.9811 18.2875C29.0347 18.1803 29.0704 18.0553 29.0883 17.9392C29.1002 17.8797 29.1061 17.8231 29.1061 17.7696C29.1002 17.71 29.0912 17.6535 29.0793 17.5999C29.0615 17.4927 29.0168 17.3945 28.9543 17.3142Z" fill="#EA6C3B"/>
<path d="M29.7122 16.8056C29.8729 16.752 30.0336 16.6955 30.1943 16.6359C30.2746 16.6092 30.355 16.5556 30.4264 16.4841C30.4978 16.4127 30.5603 16.3234 30.6049 16.2162C30.6496 16.118 30.6853 16.0109 30.7031 15.8948C30.721 15.7787 30.721 15.6537 30.7031 15.5376C30.5484 15.615 30.3937 15.6894 30.2389 15.7608C30.0782 15.8412 29.9354 15.993 29.8461 16.1805C29.8223 16.2222 29.8015 16.2698 29.7837 16.3234C29.7658 16.371 29.7509 16.4216 29.739 16.4752C29.7152 16.5824 29.7063 16.6925 29.7122 16.8056Z" fill="#EA6C3B"/>
<path d="M29.4537 15.6268C29.3287 15.5137 29.2037 15.4035 29.0787 15.2964C29.0251 15.3857 28.9894 15.4809 28.9715 15.5821C28.9537 15.6804 28.9358 15.7786 28.9448 15.8679C28.9537 15.9661 28.9715 16.0643 29.0073 16.1447C29.0341 16.234 29.0787 16.3144 29.1412 16.3769C29.2543 16.5019 29.3674 16.6269 29.4805 16.7519C29.543 16.6626 29.5877 16.5644 29.6145 16.4662C29.6502 16.359 29.6591 16.2519 29.6591 16.1447C29.6502 15.9393 29.5877 15.7518 29.4537 15.6268Z" fill="#EA6C3B"/>
<path d="M29.9992 15.2962C30.1331 15.2337 30.2581 15.1712 30.3831 15.0998C30.5171 15.0284 30.6332 14.8855 30.6867 14.7069C30.7403 14.5283 30.7493 14.314 30.6957 14.1265C30.5796 14.2068 30.4456 14.2872 30.3296 14.3586C30.1956 14.439 30.0974 14.5819 30.0438 14.7515C29.9813 14.9212 29.9634 15.1087 29.9992 15.2962Z" fill="#EA6C3B"/>
<path d="M29.6511 14.3319C29.5351 14.2516 29.419 14.1623 29.3029 14.0908C29.2314 14.2516 29.2136 14.4301 29.2493 14.5909C29.285 14.7516 29.3475 14.9034 29.4725 15.0016C29.5797 15.0909 29.6958 15.1802 29.8029 15.2785C29.8833 15.1177 29.9012 14.9213 29.8833 14.7516C29.8565 14.573 29.7672 14.4212 29.6511 14.3319Z" fill="#EA6C3B"/>
<path d="M29.8559 12.4736C29.7755 12.5719 29.713 12.7058 29.6773 12.8576C29.6416 13.0183 29.6237 13.188 29.6326 13.3755C29.6326 13.4648 29.6505 13.5541 29.6594 13.6434C29.6773 13.7268 29.6981 13.8071 29.7219 13.8845C29.7755 14.0274 29.8559 14.1613 29.9363 14.2506C30.0345 14.1613 30.1059 14.0363 30.1595 13.8845C30.1833 13.8071 30.2012 13.7208 30.2131 13.6256C30.2309 13.5363 30.2309 13.447 30.222 13.3487C30.2131 13.1523 30.1774 12.9737 30.1059 12.8219C30.0345 12.6701 29.9541 12.554 29.8559 12.4736Z" fill="#EA6C3B"/>
</g>
<g style="mix-blend-mode:multiply" opacity="0.5">
<path d="M19.5712 24.9842C19.3569 25.2223 19.1308 25.4604 18.8927 25.6986C18.7767 25.8236 18.6071 25.9129 18.4196 25.9754C18.3303 26.0022 18.2232 26.029 18.1161 26.0379C18.0149 26.0498 17.9078 26.0558 17.7947 26.0558C17.6786 26.0468 17.5626 26.0468 17.4555 26.02C17.3364 25.9962 17.2204 25.9665 17.1073 25.9307C16.8841 25.8593 16.6699 25.7343 16.4824 25.5914C16.7681 25.4128 17.0359 25.2253 17.3037 25.0288C17.4376 24.9217 17.6072 24.8413 17.7858 24.7967C17.9643 24.752 18.1607 24.7163 18.3571 24.7163C18.5624 24.7163 18.7677 24.7252 18.9731 24.7788C19.1784 24.8235 19.3748 24.886 19.5712 24.9842Z" fill="#EA6C3B"/>
<path d="M17.7858 23.5824C17.7054 23.2788 17.6429 22.9662 17.5894 22.6626C17.9554 22.6537 18.2946 22.7609 18.5892 22.9305C18.8838 23.1091 19.1337 23.3502 19.2498 23.6627C19.3688 23.9544 19.4997 24.2461 19.6426 24.5378C19.4462 24.5736 19.2409 24.5825 19.0355 24.5557C18.8392 24.52 18.6428 24.4664 18.4642 24.3771C18.2946 24.2789 18.1428 24.1717 18.0268 24.0378C17.9107 23.8949 17.8215 23.7431 17.7858 23.5824Z" fill="#EA6C3B"/>
<path d="M17.3831 24.4574C17.145 24.636 16.898 24.8087 16.6421 24.9754C16.5082 25.0736 16.3476 25.1182 16.169 25.145C16.0797 25.1569 15.9845 25.1599 15.8833 25.1539C15.7851 25.145 15.687 25.1272 15.5888 25.1093C15.4876 25.0855 15.3864 25.0557 15.2852 25.02C15.187 24.9843 15.0978 24.9307 14.9996 24.8771C14.9043 24.8236 14.8151 24.764 14.7317 24.6985C14.6425 24.6271 14.5621 24.5527 14.4907 24.4753C14.6336 24.4158 14.7764 24.3562 14.9192 24.2967C15.0531 24.2253 15.196 24.1628 15.3299 24.0913C15.4727 24.0199 15.6334 23.9842 15.803 23.9752C15.9726 23.9574 16.1601 23.9663 16.3386 24.002C16.5172 24.0288 16.7046 24.0824 16.8742 24.1628C17.0528 24.2342 17.2224 24.3324 17.3831 24.4574Z" fill="#EA6C3B"/>
<path d="M16.0086 22.8771C15.9996 22.7253 15.9907 22.5824 15.9907 22.4395C15.9907 22.2907 15.9907 22.1448 15.9907 22.002C16.074 22.0198 16.1544 22.0406 16.2317 22.0645C16.3091 22.0883 16.3865 22.118 16.4639 22.1538C16.5353 22.1895 16.6067 22.2341 16.6692 22.2788C16.7406 22.3204 16.8061 22.3681 16.8656 22.4216C16.9251 22.4752 16.9786 22.5348 17.0263 22.6002C17.0798 22.6538 17.1274 22.7133 17.1691 22.7788C17.2494 22.9128 17.303 23.0646 17.3298 23.2075C17.3893 23.4932 17.4577 23.7789 17.5351 24.0647C17.3476 24.0647 17.1512 24.0379 16.9727 23.9754C16.8031 23.9129 16.6335 23.8236 16.4906 23.7075C16.3567 23.6004 16.2407 23.4664 16.1514 23.3235C16.0711 23.1807 16.0264 23.0289 16.0086 22.8771Z" fill="#EA6C3B"/>
<path d="M15.3667 23.5114C15.1227 23.6305 14.8727 23.7436 14.6168 23.8508C14.474 23.9133 14.3222 23.9311 14.1615 23.9133C13.9919 23.9044 13.8134 23.8686 13.6527 23.7883C13.3045 23.6454 12.9832 23.3686 12.7778 23.0382C13.0546 22.9846 13.3313 22.9132 13.5902 22.8328C13.8669 22.7614 14.2062 22.7971 14.5097 22.9221C14.6704 22.9846 14.8221 23.065 14.965 23.1632C15.1078 23.2614 15.2506 23.3775 15.3667 23.5114Z" fill="#EA6C3B"/>
<path d="M14.4112 21.8503C14.4469 21.5824 14.4737 21.3234 14.5272 21.0645C14.8218 21.1716 15.0718 21.3681 15.2503 21.6002C15.3396 21.7163 15.4199 21.8413 15.4646 21.9753C15.5181 22.1092 15.5449 22.2521 15.5449 22.386C15.5449 22.6539 15.5538 22.9248 15.5717 23.1986C15.4021 23.1629 15.2414 23.1004 15.0896 23.0111C14.9379 22.9218 14.8129 22.8147 14.7058 22.6896C14.4915 22.4307 14.3755 22.136 14.4112 21.8503Z" fill="#EA6C3B"/>
<path d="M13.5367 22.145C13.2956 22.2075 13.0546 22.27 12.8046 22.3147C12.6707 22.3415 12.5368 22.3325 12.394 22.2879C12.2512 22.2522 12.0994 22.1897 11.9655 22.0914C11.6888 21.9039 11.4567 21.6092 11.3228 21.2878C11.5816 21.2788 11.8316 21.261 12.0816 21.2342C12.3404 21.2163 12.6261 21.3056 12.885 21.4753C13.01 21.5556 13.1349 21.6539 13.2421 21.77C13.3492 21.886 13.4563 22.0021 13.5367 22.145Z" fill="#EA6C3B"/>
<path d="M12.974 20.5019C13.0543 20.2697 13.1257 20.0465 13.215 19.8232C13.465 19.9661 13.6524 20.1804 13.7774 20.4215C13.8072 20.4811 13.831 20.5436 13.8488 20.609C13.8726 20.6745 13.8905 20.737 13.9024 20.7966C13.9203 20.9305 13.9203 21.0555 13.8935 21.1805C13.8488 21.4216 13.8131 21.6627 13.7774 21.9038C13.6346 21.8413 13.4918 21.761 13.3757 21.6538C13.2686 21.5467 13.1704 21.4306 13.09 21.2966C12.9472 21.0287 12.8936 20.7519 12.974 20.5019Z" fill="#EA6C3B"/>
<path d="M12.0722 20.5205C11.849 20.5294 11.6258 20.5384 11.4026 20.5384C11.1705 20.5384 10.9116 20.4133 10.7063 20.208C10.5992 20.1008 10.5099 19.9758 10.4296 19.8418C10.3582 19.699 10.3046 19.5561 10.2778 19.4043C10.504 19.4341 10.7272 19.4579 10.9474 19.4757C11.1795 19.5025 11.4205 19.6275 11.6169 19.8151C11.7151 19.9044 11.8044 20.0115 11.8847 20.1365C11.9561 20.2526 12.0275 20.3776 12.0722 20.5205Z" fill="#EA6C3B"/>
<path d="M11.8575 18.9753C11.9587 18.7789 12.0629 18.5884 12.1701 18.4038C12.554 18.7521 12.7326 19.3057 12.554 19.7343C12.4737 19.9308 12.4022 20.1362 12.3308 20.3415C12.2147 20.2701 12.1075 20.1719 12.0183 20.0558C11.9379 19.9486 11.8754 19.8236 11.8307 19.6986C11.7504 19.4396 11.7504 19.1807 11.8575 18.9753Z" fill="#EA6C3B"/>
<path d="M10.9832 18.6974C10.7927 18.6736 10.5993 18.6438 10.4029 18.6081C10.1976 18.5724 10.0012 18.4206 9.84942 18.2063C9.77801 18.0991 9.71552 17.983 9.67088 17.8491C9.65303 17.7836 9.63518 17.7181 9.61732 17.6526C9.61137 17.5872 9.6084 17.5187 9.6084 17.4473C9.79587 17.5098 9.98333 17.5634 10.1797 17.6169C10.5814 17.7241 10.9117 18.1974 10.9832 18.6974Z" fill="#EA6C3B"/>
<path d="M11.0458 17.3137C11.1618 17.1619 11.2868 17.0101 11.4119 16.8672C11.4476 16.9148 11.4773 16.9624 11.5012 17.0101C11.5309 17.0577 11.5577 17.1083 11.5815 17.1619C11.6232 17.269 11.65 17.3792 11.6619 17.4923C11.6887 17.7066 11.653 17.9209 11.5369 18.0905C11.4357 18.2513 11.3345 18.418 11.2333 18.5906C11.1529 18.5013 11.0725 18.4031 11.019 18.287C10.9654 18.1798 10.9297 18.0548 10.9118 17.9387C10.8999 17.8792 10.8969 17.8227 10.9029 17.7691C10.9029 17.7095 10.9088 17.653 10.9207 17.5994C10.9475 17.4923 10.9832 17.394 11.0458 17.3137Z" fill="#EA6C3B"/>
<path d="M10.286 16.8051C10.1313 16.7515 9.97061 16.695 9.80397 16.6355C9.72362 16.6087 9.64328 16.5551 9.57187 16.4836C9.50045 16.4122 9.44689 16.3229 9.39332 16.2158C9.34869 16.1175 9.31298 16.0104 9.29513 15.8943C9.27727 15.7782 9.27727 15.6532 9.29513 15.5371C9.44986 15.6145 9.6046 15.6889 9.75933 15.7604C9.92002 15.8407 10.0718 15.9925 10.161 16.18C10.1789 16.2217 10.1968 16.2693 10.2146 16.3229C10.2325 16.3705 10.2503 16.4211 10.2682 16.4747C10.292 16.5819 10.2979 16.692 10.286 16.8051Z" fill="#EA6C3B"/>
<path d="M10.5546 15.6263C10.6797 15.5132 10.8047 15.4031 10.9297 15.2959C10.9773 15.3852 11.01 15.4804 11.0279 15.5816C11.0547 15.6799 11.0636 15.7781 11.0547 15.8674C11.0547 15.9656 11.0279 16.0638 11.0011 16.1442C10.9654 16.2335 10.9208 16.3139 10.8583 16.3764C10.7451 16.5014 10.632 16.6264 10.5189 16.7514C10.4653 16.6621 10.4118 16.5639 10.385 16.4657C10.3493 16.3585 10.3403 16.2514 10.3403 16.1442C10.3582 15.9388 10.4207 15.7513 10.5546 15.6263Z" fill="#EA6C3B"/>
<path d="M10.0006 15.2962C9.86662 15.2337 9.74162 15.1712 9.6166 15.0998C9.48266 15.0284 9.3755 14.8855 9.31299 14.7069C9.25941 14.5283 9.25049 14.314 9.30406 14.1265C9.42908 14.2068 9.55409 14.2872 9.6791 14.3586C9.81305 14.439 9.90235 14.5819 9.96486 14.7515C10.0274 14.9212 10.0363 15.1087 10.0006 15.2962Z" fill="#EA6C3B"/>
<path d="M10.3588 14.3309C10.4749 14.2506 10.5821 14.1613 10.7071 14.0898C10.7696 14.2506 10.7874 14.4292 10.7517 14.5899C10.7249 14.7506 10.6535 14.9024 10.5374 15.0007C10.4213 15.09 10.3142 15.1793 10.207 15.2775C10.1177 15.1167 10.0999 14.9203 10.1266 14.7506C10.1534 14.572 10.2338 14.4202 10.3588 14.3309Z" fill="#EA6C3B"/>
<path d="M10.1534 12.4736C10.2248 12.5719 10.2873 12.7058 10.323 12.8576C10.3588 13.0183 10.3855 13.188 10.3766 13.3755C10.3677 13.4648 10.3498 13.5541 10.3409 13.6434C10.323 13.7268 10.3022 13.8071 10.2784 13.8845C10.2248 14.0274 10.1534 14.1613 10.0641 14.2506C9.97478 14.1613 9.90334 14.0363 9.84976 13.8845C9.82 13.8071 9.79917 13.7208 9.78726 13.6256C9.7694 13.5363 9.76939 13.447 9.77832 13.3487C9.78725 13.1523 9.82298 12.9737 9.89441 12.8219C9.96585 12.6701 10.0551 12.554 10.1534 12.4736Z" fill="#EA6C3B"/>
</g>
<g style="mix-blend-mode:multiply" opacity="0.4">
<path d="M26.8543 6.85742L26.7382 7.71467L27.3721 8.29509L26.524 8.4469L26.1759 9.2327L25.7652 8.47368L24.9082 8.37546L25.5063 7.75038L25.3367 6.911L26.1044 7.28604L26.8543 6.85742Z" fill="#EA6C3B"/>
</g>
<g style="mix-blend-mode:multiply" opacity="0.4">
<path d="M23.614 5.25928L23.7658 6.10759L24.5514 6.46478L23.7926 6.87554L23.6944 7.72385L23.0784 7.1345L22.2303 7.30416L22.6053 6.52728L22.1768 5.77719L23.0338 5.90221L23.614 5.25928Z" fill="#EA6C3B"/>
</g>
<g style="mix-blend-mode:multiply" opacity="0.4">
<path d="M20.0347 4.74121L20.4454 5.50023L21.3024 5.59845L20.7043 6.22353L20.8739 7.06291L20.0972 6.68787L19.3563 7.11649L19.4723 6.25925L18.8296 5.67882L19.6777 5.52702L20.0347 4.74121Z" fill="#EA6C3B"/>
</g>
<g style="mix-blend-mode:multiply" opacity="0.4">
<path d="M16.4722 5.35596L17.0971 5.95424L17.9363 5.77565L17.5613 6.55253L17.9898 7.30262L17.1328 7.18653L16.5526 7.82053L16.4008 6.97222L15.6152 6.62396L16.374 6.2132L16.4722 5.35596Z" fill="#EA6C3B"/>
</g>
<g style="mix-blend-mode:multiply" opacity="0.4">
<path d="M13.2766 7.04479L14.0533 7.41983L14.7942 6.99121L14.6782 7.84846L15.3209 8.42888L14.4729 8.58068L14.1158 9.36649L13.7051 8.60747L12.8481 8.50925L13.4463 7.88417L13.2766 7.04479Z" fill="#EA6C3B"/>
</g>
<g style="mix-blend-mode:multiply" opacity="0.4">
<path d="M12.6251 9.98282C12.6251 9.75065 12.4376 9.5542 12.1966 9.5542C11.9645 9.5542 11.7681 9.75065 11.7681 9.98282C11.7681 10.2239 11.9645 10.4114 12.1966 10.4114C12.4376 10.4114 12.6251 10.2239 12.6251 9.98282Z" fill="#EA6C3B"/>
</g>
<g style="mix-blend-mode:multiply" opacity="0.4">
<path d="M28.6578 9.98282C28.6578 9.75065 28.4614 9.5542 28.2293 9.5542C27.9972 9.5542 27.8008 9.75065 27.8008 9.98282C27.8008 10.2239 27.9972 10.4114 28.2293 10.4114C28.4614 10.4114 28.6578 10.2239 28.6578 9.98282Z" fill="#EA6C3B"/>
</g>
<g style="mix-blend-mode:screen" opacity="0.3">
<path d="M19.9987 3.625C19.7309 3.625 19.4631 3.63393 19.1953 3.65179L8.1347 14.7156C8.11684 14.9835 8.10791 15.2514 8.10791 15.5193C8.10791 17.5374 8.61675 19.4304 9.50053 21.1003L25.5782 5.01802C23.9088 4.13399 22.0163 3.625 19.9987 3.625Z" fill="#EA6C3B"/>
</g>
<g style="mix-blend-mode:screen" opacity="0.3">
<path d="M26.712 5.70557L10.188 22.2343C10.7058 22.9933 11.3128 23.6898 11.9912 24.306L28.783 7.50935C28.1671 6.8307 27.4708 6.22348 26.712 5.70557Z" fill="#EA6C3B"/>
</g>
<g style="mix-blend-mode:screen" opacity="0.3">
<path d="M31.8894 15.5191C31.8894 14.9298 31.8478 14.3493 31.7645 13.7778L18.2578 27.2884C18.8291 27.3717 19.4094 27.4134 19.9986 27.4134C21.3109 27.4134 22.5785 27.1991 23.7569 26.8062L31.2824 19.2785C31.6752 18.0998 31.8894 16.8318 31.8894 15.5191Z" fill="#EA6C3B"/>
</g>
<path fill-rule="evenodd" clip-rule="evenodd" d="M19.9985 27.5547C13.3657 27.5547 7.96484 22.1523 7.96484 15.5176C7.96484 8.88289 13.3657 3.48047 19.9985 3.48047C26.6313 3.48047 32.0322 8.88289 32.0322 15.5176C32.0322 22.1523 26.6313 27.5547 19.9985 27.5547ZM19.9985 3.77515C13.5264 3.77515 8.25943 9.04363 8.25943 15.5176C8.25943 21.9916 13.5264 27.269 19.9985 27.269C26.4706 27.269 31.7465 21.9916 31.7465 15.5176C31.7465 9.04363 26.4706 3.77515 19.9985 3.77515Z" fill="#EA6C3B"/>
<g style="mix-blend-mode:screen" opacity="0.5">
<path fill-rule="evenodd" clip-rule="evenodd" d="M19.9985 27.5547C13.3657 27.5547 7.96484 22.1523 7.96484 15.5176C7.96484 8.88289 13.3657 3.48047 19.9985 3.48047C26.6313 3.48047 32.0322 8.88289 32.0322 15.5176C32.0322 22.1523 26.6313 27.5547 19.9985 27.5547ZM19.9985 3.77515C13.5264 3.77515 8.25943 9.04363 8.25943 15.5176C8.25943 21.9916 13.5264 27.269 19.9985 27.269C26.4706 27.269 31.7465 21.9916 31.7465 15.5176C31.7465 9.04363 26.4706 3.77515 19.9985 3.77515Z" fill="#EA6C3B"/>
</g>
<path d="M12.6876 7.83136C11.1343 7.27773 10.7147 6.84018 10.1881 5.20605C9.66136 6.84018 9.24178 7.27773 7.68848 7.83136C9.24178 8.385 9.66136 8.83148 10.1881 10.4567C10.7147 8.83148 11.1343 8.385 12.6876 7.83136Z" fill="white"/>
<path d="M30.4963 22.5108C29.0323 21.9928 28.6306 21.5642 28.1307 20.0283C27.6397 21.5642 27.238 21.9928 25.7739 22.5108C27.238 23.0287 27.6397 23.4484 28.1307 24.9932C28.6306 23.4484 29.0323 23.0287 30.4963 22.5108Z" fill="white"/>
<path d="M31.666 24.9944C30.943 24.7354 30.7376 24.53 30.4966 23.771C30.2556 24.53 30.0502 24.7354 29.3271 24.9944C30.0502 25.2533 30.2556 25.4587 30.4966 26.2177C30.7376 25.4587 30.943 25.2533 31.666 24.9944Z" fill="white"/>
<path d="M14.0263 4.85778C13.3032 4.59882 13.1068 4.39344 12.8657 3.62549C12.6158 4.39344 12.4194 4.59882 11.6963 4.85778C12.4194 5.10781 12.6158 5.32212 12.8657 6.08113C13.1068 5.32212 13.3032 5.10781 14.0263 4.85778Z" fill="white"/>
</svg>
