<svg width="40" height="44" viewBox="0 0 40 44" fill="none" xmlns="http://www.w3.org/2000/svg">
<path d="M21.013 16.3774L14.4318 19.2349L6.71664 40.3624C6.68985 40.4428 6.76129 40.5231 6.85058 40.5053L12.8602 38.7283L16.3071 43.9521C16.3517 44.0236 16.4678 44.0146 16.4946 43.9343L24.2098 22.8068L21.013 16.3774Z" fill="#25AEF2"/>
<g style="mix-blend-mode:multiply" opacity="0.5">
<path d="M21.013 16.3774L14.4318 19.2349L6.71664 40.3624C6.68985 40.4428 6.76129 40.5231 6.85058 40.5053L12.8602 38.7283L16.3071 43.9521C16.3517 44.0236 16.4678 44.0146 16.4946 43.9343L24.2098 22.8068L21.013 16.3774Z" fill="#25AEF2"/>
</g>
<g style="mix-blend-mode:multiply" opacity="0.5">
<path d="M23.1314 20.6274L19.9971 21.5293L18.6934 37.9331L24.2119 22.8063L23.1314 20.6274Z" fill="#1BAFDD"/>
</g>
<path d="M34.7919 39.4152L25.3444 19.1182L18.54 16.8232L15.9058 23.5026L25.3444 43.7996C25.398 43.9157 25.5676 43.9247 25.6301 43.8086L28.4608 38.5312L34.6133 39.6474C34.7473 39.6652 34.8455 39.5402 34.7919 39.4152Z" fill="#25AEF2"/>
<g style="mix-blend-mode:multiply" opacity="0.3">
<path d="M19.9959 31.8882C23.6749 31.8882 27.0503 30.6113 29.7024 28.486L25.3448 19.1188L21.7818 17.9133L21.0139 16.3774L19.353 17.1007L18.5404 16.8239L18.2457 17.5829L14.4328 19.2349L10.8877 28.9325C13.4505 30.7988 16.5937 31.8882 19.9959 31.8882Z" fill="#1BAFDD"/>
</g>
<path d="M35.5158 15.5197C35.5158 6.94725 28.5686 0 19.9961 0C11.4326 0 4.48535 6.94725 4.48535 15.5197C4.48535 24.0921 11.4326 31.0394 19.9961 31.0394C28.5686 31.0394 35.5158 24.0921 35.5158 15.5197Z" fill="#C2D0D3"/>
<g style="mix-blend-mode:screen" opacity="0.5">
<path d="M4.91398 15.9483C4.91398 7.37587 11.8612 0.428622 20.4247 0.428622C24.6038 0.428622 28.39 2.0806 31.1849 4.76842C28.3632 1.83057 24.3895 0 19.9961 0C11.4326 0 4.48535 6.94725 4.48535 15.5197C4.48535 19.9131 6.307 23.8778 9.24485 26.7085C6.55703 23.9135 4.91398 20.1274 4.91398 15.9483Z" fill="#C2D0D3"/>
</g>
<g style="mix-blend-mode:multiply" opacity="0.5">
<path d="M32.3642 6.15283C34.034 8.62634 35.0073 11.5999 35.0073 14.8056C35.0073 23.3691 28.0601 30.3164 19.4876 30.3164C14.4335 30.3164 9.95081 27.9054 7.12012 24.1728C9.90616 28.3162 14.6389 31.0397 19.9966 31.0397C28.5691 31.0397 35.5163 24.0924 35.5163 15.52C35.5163 12.0017 34.3465 8.75135 32.3642 6.15283Z" fill="#C2D0D3"/>
</g>
<g style="mix-blend-mode:multiply" opacity="0.5">
<path d="M33.4972 15.52C33.4972 8.06377 27.4518 2.02734 19.9956 2.02734C12.5483 2.02734 6.50293 8.06377 6.50293 15.52C6.50293 22.9762 12.5483 29.0216 19.9956 29.0216C27.4518 29.0216 33.4972 22.9762 33.4972 15.52Z" fill="#C2D0D3"/>
</g>
<path d="M32.6941 15.5201C32.6941 8.5103 27.0059 2.83105 19.9961 2.83105C12.9864 2.83105 7.30713 8.5103 7.30713 15.5201C7.30713 22.5298 12.9864 28.209 19.9961 28.209C27.0059 28.209 32.6941 22.5298 32.6941 15.5201Z" fill="#C2D0D3"/>
<path d="M31.8904 15.5197C31.8904 8.95647 26.5684 3.62549 19.9962 3.62549C13.4329 3.62549 8.11084 8.95647 8.11084 15.5197C8.11084 22.092 13.4329 27.414 19.9962 27.414C26.5684 27.414 31.8904 22.092 31.8904 15.5197Z" fill="#C2D0D3"/>
<g style="mix-blend-mode:multiply" opacity="0.5">
<path d="M20.4346 24.9842C20.6429 25.2223 20.8662 25.4604 21.1043 25.6986C21.2293 25.8236 21.39 25.9129 21.5776 25.9754C21.6758 26.0022 21.774 26.029 21.8812 26.0379C21.9883 26.0498 22.0985 26.0558 22.2116 26.0558C22.3187 26.0468 22.4348 26.0468 22.5509 26.02C22.664 25.9962 22.7771 25.9665 22.8902 25.9307C23.1224 25.8593 23.3278 25.7343 23.5242 25.5914C23.2385 25.4128 22.9617 25.2253 22.7027 25.0288C22.5598 24.9217 22.3991 24.8413 22.2205 24.7967C22.033 24.752 21.8365 24.7163 21.6401 24.7163C21.4436 24.7163 21.2382 24.7252 21.0329 24.7788C20.8275 24.8235 20.6221 24.886 20.4346 24.9842Z" fill="#C2D0D3"/>
<path d="M22.2208 23.5824C22.3012 23.2788 22.3637 22.9662 22.4172 22.6626C22.0511 22.6537 21.7029 22.7609 21.4082 22.9305C21.1135 23.1091 20.8724 23.3502 20.7474 23.6627C20.6283 23.9544 20.4974 24.2461 20.3545 24.5378C20.5509 24.5736 20.7653 24.5825 20.9617 24.5557C21.1671 24.52 21.3635 24.4664 21.5332 24.3771C21.7118 24.2789 21.8636 24.1717 21.9797 24.0378C22.0958 23.8949 22.1761 23.7431 22.2208 23.5824Z" fill="#C2D0D3"/>
<path d="M22.623 24.4574C22.8552 24.636 23.0993 24.8087 23.3553 24.9754C23.4892 25.0736 23.65 25.1182 23.8375 25.145C23.9268 25.1569 24.019 25.1599 24.1143 25.1539C24.2125 25.145 24.3107 25.1272 24.4179 25.1093C24.5131 25.0855 24.6114 25.0557 24.7126 25.02C24.8108 24.9843 24.909 24.9307 25.0073 24.8771C25.0966 24.8236 25.1859 24.764 25.2751 24.6985C25.3585 24.6271 25.4359 24.5527 25.5073 24.4753C25.3644 24.4158 25.2245 24.3562 25.0876 24.2967C24.9447 24.2253 24.8108 24.1628 24.6769 24.0913C24.534 24.0199 24.3733 23.9842 24.2036 23.9752C24.025 23.9574 23.8464 23.9663 23.6678 24.002C23.4803 24.0288 23.3017 24.0824 23.1231 24.1628C22.9534 24.2342 22.7749 24.3324 22.623 24.4574Z" fill="#C2D0D3"/>
<path d="M23.9897 22.8771C23.9986 22.7253 24.0076 22.5824 24.0165 22.4395C24.0165 22.2907 24.0165 22.1448 24.0165 22.002C23.9332 22.0198 23.8528 22.0406 23.7754 22.0645C23.6921 22.0883 23.6147 22.118 23.5432 22.1538C23.4718 22.1895 23.4004 22.2341 23.3289 22.2788C23.2634 22.3204 23.2009 22.3681 23.1414 22.4216C23.0819 22.4752 23.0283 22.5348 22.9807 22.6002C22.9271 22.6538 22.8795 22.7133 22.8378 22.7788C22.7574 22.9128 22.6949 23.0646 22.6681 23.2075C22.6146 23.4932 22.5491 23.7789 22.4717 24.0647C22.6592 24.0647 22.8467 24.0379 23.0253 23.9754C23.2039 23.9129 23.3646 23.8236 23.5075 23.7075C23.6504 23.6004 23.7665 23.4664 23.8468 23.3235C23.9361 23.1807 23.9808 23.0289 23.9897 22.8771Z" fill="#C2D0D3"/>
<path d="M24.6401 23.5114C24.8842 23.6305 25.1342 23.7436 25.3902 23.8508C25.5242 23.9133 25.676 23.9311 25.8456 23.9133C26.0064 23.9044 26.185 23.8686 26.3546 23.7883C26.694 23.6454 27.0154 23.3686 27.2208 23.0382C26.9529 22.9846 26.6761 22.9132 26.4082 22.8328C26.1314 22.7614 25.801 22.7971 25.4885 22.9221C25.3366 22.9846 25.1759 23.065 25.042 23.1632C24.8902 23.2614 24.7562 23.3775 24.6401 23.5114Z" fill="#C2D0D3"/>
<path d="M25.5964 21.8503C25.5607 21.5824 25.525 21.3234 25.4714 21.0645C25.1767 21.1716 24.9267 21.3681 24.7481 21.6002C24.6588 21.7163 24.5873 21.8413 24.5338 21.9753C24.4802 22.1092 24.4623 22.2521 24.4534 22.386C24.4534 22.6539 24.4475 22.9248 24.4355 23.1986C24.6052 23.1629 24.7659 23.1004 24.9177 23.0111C25.0606 22.9218 25.1946 22.8147 25.3017 22.6896C25.516 22.4307 25.6321 22.136 25.5964 21.8503Z" fill="#C2D0D3"/>
<path d="M26.4712 22.1455C26.7123 22.208 26.9534 22.2705 27.2034 22.3152C27.3284 22.3419 27.4713 22.333 27.6142 22.2884C27.7571 22.2526 27.9089 22.1901 28.0428 22.0919C28.3196 21.9044 28.5518 21.6097 28.6768 21.2882C28.4268 21.2793 28.1678 21.2615 27.9267 21.2347C27.6678 21.2168 27.3731 21.3061 27.1231 21.4758C26.9891 21.5561 26.873 21.6544 26.7569 21.7704C26.6498 21.8865 26.5516 22.0026 26.4712 22.1455Z" fill="#C2D0D3"/>
<path d="M27.0248 20.5024C26.9534 20.2702 26.8819 20.047 26.7926 19.8237C26.5426 19.9666 26.3551 20.1809 26.2301 20.422C26.2003 20.4815 26.1735 20.5441 26.1497 20.6095C26.1318 20.675 26.117 20.7375 26.1051 20.7971C26.0783 20.931 26.0783 21.056 26.1051 21.181C26.1497 21.4221 26.1943 21.6632 26.2301 21.9043C26.3729 21.8418 26.5069 21.7615 26.623 21.6543C26.7391 21.5471 26.8373 21.4311 26.9087 21.2971C27.0516 21.0292 27.1052 20.7524 27.0248 20.5024Z" fill="#C2D0D3"/>
<path d="M27.9365 20.5205C28.1508 20.5294 28.3741 20.5384 28.6062 20.5384C28.8384 20.5384 29.0974 20.4133 29.3028 20.208C29.401 20.1008 29.4992 19.9758 29.5706 19.8418C29.6421 19.699 29.6957 19.5561 29.7314 19.4043C29.5052 19.4341 29.2819 19.4579 29.0617 19.4757C28.8295 19.5025 28.5884 19.6275 28.3919 19.8151C28.2848 19.9044 28.1955 20.0115 28.124 20.1365C28.0437 20.2526 27.9812 20.3776 27.9365 20.5205Z" fill="#C2D0D3"/>
<path d="M28.1506 18.9753C28.0494 18.7789 27.9422 18.5884 27.8291 18.4038C27.4541 18.7521 27.2666 19.3057 27.4451 19.7343C27.5255 19.9308 27.6059 20.1362 27.6773 20.3415C27.7934 20.2701 27.9006 20.1719 27.9809 20.0558C28.0613 19.9486 28.1327 19.8236 28.1774 19.6986C28.2577 19.4396 28.2577 19.1807 28.1506 18.9753Z" fill="#C2D0D3"/>
<path d="M29.0171 18.6974C29.2135 18.6736 29.41 18.6438 29.6064 18.6081C29.8118 18.5724 30.0083 18.4206 30.1601 18.2063C30.2315 18.0991 30.2851 17.983 30.3297 17.8491C30.3536 17.7836 30.3714 17.7181 30.3833 17.6526C30.3952 17.5872 30.4012 17.5187 30.4012 17.4473C30.2137 17.5098 30.0261 17.5634 29.8297 17.6169C29.4279 17.7241 29.0975 18.1974 29.0171 18.6974Z" fill="#C2D0D3"/>
<path d="M28.9543 17.3137C28.8471 17.1619 28.7221 17.0101 28.5971 16.8672C28.5614 16.9148 28.5286 16.9624 28.4989 17.0101C28.4691 17.0577 28.4453 17.1083 28.4274 17.1619C28.3798 17.269 28.353 17.3792 28.3471 17.4923C28.3114 17.7066 28.356 17.9209 28.4632 18.0905C28.5703 18.2513 28.6715 18.418 28.7668 18.5906C28.8561 18.5013 28.9275 18.4031 28.99 18.287C29.0436 18.1798 29.0793 18.0548 29.0972 17.9387C29.1031 17.8792 29.1061 17.8227 29.1061 17.7691C29.1061 17.7095 29.1001 17.653 29.0882 17.5994C29.0614 17.4923 29.0168 17.394 28.9543 17.3137Z" fill="#C2D0D3"/>
<path d="M29.7137 16.8051C29.8744 16.7515 30.0352 16.695 30.1959 16.6355C30.2852 16.6087 30.3656 16.5551 30.437 16.4836C30.4995 16.4122 30.562 16.3229 30.6067 16.2158C30.6513 16.1175 30.696 16.0104 30.7138 15.8943C30.7227 15.7782 30.7228 15.6532 30.7049 15.5371C30.5501 15.6145 30.3953 15.6889 30.2405 15.7604C30.0798 15.8407 29.9369 15.9925 29.8476 16.18C29.8238 16.2217 29.803 16.2693 29.7851 16.3229C29.7673 16.3705 29.7524 16.4211 29.7405 16.4747C29.7167 16.5819 29.7077 16.692 29.7137 16.8051Z" fill="#C2D0D3"/>
<path d="M29.4543 15.6268C29.3293 15.5137 29.2043 15.4035 29.0793 15.2964C29.0257 15.3857 28.99 15.4809 28.9721 15.5821C28.9542 15.6804 28.9453 15.7786 28.9453 15.8679C28.9542 15.9661 28.9721 16.0643 29.0078 16.1447C29.0346 16.234 29.0882 16.3144 29.1418 16.3769C29.2549 16.5019 29.368 16.6269 29.4811 16.7519C29.5436 16.6626 29.5882 16.5644 29.624 16.4662C29.6508 16.359 29.6686 16.2519 29.6597 16.1447C29.6508 15.9393 29.5882 15.7518 29.4543 15.6268Z" fill="#C2D0D3"/>
<path d="M29.9982 15.2962C30.1321 15.2337 30.2571 15.1712 30.3911 15.0998C30.525 15.0284 30.6322 14.8855 30.6858 14.7069C30.7393 14.5283 30.7572 14.314 30.7036 14.1265C30.5786 14.2068 30.4536 14.2872 30.3286 14.3586C30.1946 14.439 30.0964 14.5819 30.0428 14.7515C29.9803 14.9212 29.9625 15.1087 29.9982 15.2962Z" fill="#C2D0D3"/>
<path d="M29.6502 14.3319C29.5341 14.2516 29.418 14.1623 29.3019 14.0908C29.2305 14.2516 29.2126 14.4301 29.2483 14.5909C29.284 14.7516 29.3555 14.9034 29.4716 15.0016C29.5787 15.0909 29.6948 15.1802 29.802 15.2785C29.8823 15.1177 29.9091 14.9213 29.8823 14.7516C29.8555 14.573 29.7662 14.4212 29.6502 14.3319Z" fill="#C2D0D3"/>
<path d="M29.8559 12.4736C29.7755 12.5719 29.713 12.7058 29.6773 12.8576C29.6416 13.0183 29.6237 13.188 29.6326 13.3755C29.6326 13.4648 29.6505 13.5541 29.6684 13.6434C29.6803 13.7268 29.7011 13.8071 29.7309 13.8845C29.7755 14.0274 29.8559 14.1613 29.9363 14.2506C30.0345 14.1613 30.1059 14.0363 30.1595 13.8845C30.1833 13.8071 30.2041 13.7208 30.222 13.6256C30.2309 13.5363 30.2309 13.447 30.2309 13.3487C30.222 13.1523 30.1774 12.9737 30.1059 12.8219C30.0434 12.6701 29.9541 12.554 29.8559 12.4736Z" fill="#C2D0D3"/>
</g>
<g style="mix-blend-mode:multiply" opacity="0.5">
<path d="M19.5677 24.9842C19.3534 25.2223 19.1301 25.4604 18.898 25.6986C18.7729 25.8236 18.6122 25.9129 18.4158 25.9754C18.3265 26.0022 18.2282 26.029 18.1211 26.0379C18.0139 26.0498 17.9038 26.0558 17.7907 26.0558C17.6835 26.0468 17.5674 26.0468 17.4514 26.02C17.3382 25.9962 17.2251 25.9665 17.112 25.9307C16.8799 25.8593 16.6745 25.7343 16.478 25.5914C16.7638 25.4128 17.0406 25.2253 17.2995 25.0288C17.4424 24.9217 17.6032 24.8413 17.7818 24.7967C17.9603 24.752 18.1568 24.7163 18.3622 24.7163C18.5586 24.7163 18.764 24.7252 18.9694 24.7788C19.1748 24.8235 19.3712 24.886 19.5677 24.9842Z" fill="#C2D0D3"/>
<path d="M17.7819 23.5824C17.7015 23.2788 17.639 22.9662 17.5854 22.6626C17.9516 22.6537 18.2998 22.7609 18.5945 22.9305C18.8802 23.1091 19.1303 23.3502 19.2553 23.6627C19.3744 23.9544 19.5053 24.2461 19.6482 24.5378C19.4428 24.5736 19.2374 24.5825 19.032 24.5557C18.8356 24.52 18.6391 24.4664 18.4695 24.3771C18.2909 24.2789 18.1391 24.1717 18.023 24.0378C17.9069 23.8949 17.8266 23.7431 17.7819 23.5824Z" fill="#C2D0D3"/>
<path d="M17.3799 24.4574C17.1417 24.636 16.8977 24.8087 16.6476 24.9754C16.5048 25.0736 16.344 25.1182 16.1654 25.145C16.0762 25.1569 15.9809 25.1599 15.8797 25.1539C15.7904 25.145 15.6922 25.1272 15.585 25.1093C15.4898 25.0855 15.3915 25.0557 15.2903 25.02C15.1921 24.9843 15.0939 24.9307 14.9957 24.8771C14.9004 24.8236 14.8111 24.764 14.7278 24.6985C14.6444 24.6271 14.567 24.5527 14.4956 24.4753C14.6385 24.4158 14.7784 24.3562 14.9153 24.2967C15.0492 24.2253 15.1921 24.1628 15.3261 24.0913C15.4689 24.0199 15.6297 23.9842 15.7993 23.9752C15.9779 23.9574 16.1565 23.9663 16.3351 24.002C16.5137 24.0288 16.7012 24.0824 16.8709 24.1628C17.0495 24.2342 17.2191 24.3324 17.3799 24.4574Z" fill="#C2D0D3"/>
<path d="M16.0136 22.8771C16.0047 22.7253 15.9957 22.5824 15.9868 22.4395C15.9868 22.2907 15.9868 22.1448 15.9868 22.002C16.0702 22.0198 16.1505 22.0406 16.2279 22.0645C16.3113 22.0883 16.3886 22.118 16.4601 22.1538C16.5315 22.1895 16.603 22.2341 16.6655 22.2788C16.7369 22.3204 16.8024 22.3681 16.8619 22.4216C16.9214 22.4752 16.975 22.5348 17.0227 22.6002C17.0762 22.6538 17.1239 22.7133 17.1655 22.7788C17.2459 22.9128 17.2995 23.0646 17.3352 23.2075C17.3888 23.4932 17.4543 23.7789 17.5316 24.0647C17.3441 24.0647 17.1566 24.0379 16.978 23.9754C16.7994 23.9129 16.6297 23.8236 16.4958 23.7075C16.3529 23.6004 16.2368 23.4664 16.1475 23.3235C16.0672 23.1807 16.0225 23.0289 16.0136 22.8771Z" fill="#C2D0D3"/>
<path d="M15.3629 23.5114C15.1188 23.6305 14.8688 23.7436 14.6128 23.8508C14.4699 23.9133 14.3181 23.9311 14.1574 23.9133C13.9967 23.9044 13.8181 23.8686 13.6484 23.7883C13.3091 23.6454 12.9876 23.3686 12.7822 23.0382C13.0501 22.9846 13.3269 22.9132 13.5859 22.8328C13.8627 22.7614 14.202 22.7971 14.5056 22.9221C14.6664 22.9846 14.8182 23.065 14.9611 23.1632C15.1129 23.2614 15.2468 23.3775 15.3629 23.5114Z" fill="#C2D0D3"/>
<path d="M14.4073 21.8503C14.443 21.5824 14.4787 21.3234 14.5323 21.0645C14.827 21.1716 15.0681 21.3681 15.2556 21.6002C15.3449 21.7163 15.4163 21.8413 15.4699 21.9753C15.5235 22.1092 15.5413 22.2521 15.5413 22.386C15.5413 22.6539 15.5503 22.9248 15.5681 23.1986C15.3985 23.1629 15.2377 23.1004 15.0859 23.0111C14.943 22.9218 14.8091 22.8147 14.7019 22.6896C14.4876 22.4307 14.3716 22.136 14.4073 21.8503Z" fill="#C2D0D3"/>
<path d="M13.5323 22.1455C13.2912 22.208 13.0501 22.2705 12.8 22.3152C12.675 22.3419 12.5322 22.333 12.3893 22.2884C12.2464 22.2526 12.0946 22.1901 11.9607 22.0919C11.6838 21.9044 11.4517 21.6097 11.3267 21.2882C11.5767 21.2793 11.8356 21.2615 12.0767 21.2347C12.3357 21.2168 12.6304 21.3061 12.8804 21.4758C13.0054 21.5561 13.1304 21.6544 13.2376 21.7704C13.3537 21.8865 13.4519 22.0026 13.5323 22.1455Z" fill="#C2D0D3"/>
<path d="M12.9784 20.5024C13.0499 20.2702 13.1213 20.047 13.2106 19.8237C13.4606 19.9666 13.6482 20.1809 13.7732 20.422C13.8029 20.4815 13.8297 20.5441 13.8535 20.6095C13.8714 20.675 13.8863 20.7375 13.8982 20.7971C13.925 20.931 13.925 21.056 13.8982 21.181C13.8446 21.4221 13.8089 21.6632 13.7732 21.9043C13.6303 21.8418 13.4874 21.7615 13.3803 21.6543C13.2642 21.5471 13.166 21.4311 13.0945 21.2971C12.9517 21.0292 12.8891 20.7524 12.9784 20.5024Z" fill="#C2D0D3"/>
<path d="M12.0668 20.5205C11.8525 20.5294 11.6203 20.5384 11.3971 20.5384C11.1649 20.5384 10.906 20.4133 10.7006 20.208C10.6024 20.1008 10.5041 19.9758 10.4238 19.8418C10.3613 19.699 10.3077 19.5561 10.272 19.4043C10.4982 19.4341 10.7214 19.4579 10.9417 19.4757C11.1739 19.5025 11.415 19.6275 11.6114 19.8151C11.7096 19.9044 11.8079 20.0115 11.8793 20.1365C11.9507 20.2526 12.0222 20.3776 12.0668 20.5205Z" fill="#C2D0D3"/>
<path d="M11.8521 18.9753C11.9533 18.7789 12.0605 18.5884 12.1736 18.4038C12.5487 18.7521 12.7272 19.3057 12.5576 19.7343C12.4683 19.9308 12.3969 20.1362 12.3254 20.3415C12.2093 20.2701 12.1022 20.1719 12.0218 20.0558C11.9325 19.9486 11.87 19.8236 11.8254 19.6986C11.745 19.4396 11.745 19.1807 11.8521 18.9753Z" fill="#C2D0D3"/>
<path d="M10.9861 18.6979C10.7897 18.6741 10.5932 18.6443 10.3968 18.6086C10.1914 18.5729 9.99495 18.4211 9.84315 18.2068C9.77171 18.0996 9.71813 17.9835 9.67349 17.8496C9.64967 17.7841 9.63181 17.7186 9.61991 17.6531C9.608 17.5877 9.60205 17.5192 9.60205 17.4478C9.78957 17.5103 9.97709 17.5638 10.1735 17.6174C10.5754 17.7246 10.9058 18.1978 10.9861 18.6979Z" fill="#C2D0D3"/>
<path d="M11.0398 17.3142C11.1559 17.1624 11.2809 17.0105 11.406 16.8677C11.4417 16.9153 11.4744 16.9629 11.5042 17.0106C11.534 17.0582 11.5578 17.1088 11.5756 17.1624C11.6232 17.2695 11.65 17.3796 11.656 17.4927C11.6828 17.7071 11.6471 17.9214 11.5399 18.091C11.4327 18.2518 11.3315 18.4185 11.2363 18.5911C11.147 18.5018 11.0756 18.4036 11.0131 18.2875C10.9595 18.1803 10.9238 18.0553 10.9059 17.9392C10.8999 17.8797 10.897 17.8231 10.897 17.7696C10.897 17.71 10.9029 17.6535 10.9148 17.5999C10.9416 17.4927 10.9863 17.3945 11.0398 17.3142Z" fill="#C2D0D3"/>
<path d="M10.2911 16.8056C10.1304 16.752 9.96967 16.6955 9.80894 16.6359C9.71964 16.6092 9.63928 16.5556 9.56784 16.4841C9.4964 16.4127 9.44282 16.3234 9.39817 16.2162C9.3446 16.118 9.30888 16.0109 9.29102 15.8948C9.28209 15.7787 9.28209 15.6537 9.29995 15.5376C9.45473 15.615 9.60951 15.6894 9.76429 15.7608C9.92502 15.8412 10.0679 15.993 10.1572 16.1805C10.181 16.2222 10.2018 16.2698 10.2197 16.3234C10.2376 16.371 10.2524 16.4216 10.2643 16.4752C10.2882 16.5824 10.2971 16.6925 10.2911 16.8056Z" fill="#C2D0D3"/>
<path d="M10.5495 15.6268C10.6745 15.5137 10.7995 15.4035 10.9245 15.2964C10.9781 15.3857 11.0138 15.4809 11.0317 15.5821C11.0496 15.6804 11.0585 15.7786 11.0585 15.8679C11.0496 15.9661 11.0317 16.0643 10.996 16.1447C10.9603 16.234 10.9156 16.3144 10.862 16.3769C10.743 16.5019 10.6299 16.6269 10.5227 16.7519C10.4602 16.6626 10.4156 16.5644 10.3798 16.4662C10.353 16.359 10.3352 16.2519 10.3441 16.1447C10.353 15.9393 10.4156 15.7518 10.5495 15.6268Z" fill="#C2D0D3"/>
<path d="M10.0049 15.2962C9.87094 15.2337 9.74592 15.1712 9.61198 15.0998C9.47803 15.0284 9.37088 14.8855 9.3173 14.7069C9.26372 14.5283 9.24586 14.314 9.29944 14.1265C9.42445 14.2068 9.54947 14.2872 9.67448 14.3586C9.80843 14.439 9.89773 14.5819 9.96023 14.7515C10.0227 14.9212 10.0406 15.1087 10.0049 15.2962Z" fill="#C2D0D3"/>
<path d="M10.3531 14.3309C10.4691 14.2506 10.5852 14.1613 10.7013 14.0898C10.7638 14.2506 10.7817 14.4292 10.746 14.5899C10.7192 14.7506 10.6477 14.9024 10.5316 15.0007C10.4245 15.09 10.3084 15.1793 10.2012 15.2775C10.1209 15.1167 10.0941 14.9203 10.1209 14.7506C10.1477 14.572 10.237 14.4202 10.3531 14.3309Z" fill="#C2D0D3"/>
<path d="M10.1475 12.4736C10.2279 12.5719 10.2904 12.7058 10.3261 12.8576C10.3529 13.0183 10.3797 13.188 10.3707 13.3755C10.3618 13.4648 10.3529 13.5541 10.335 13.6434C10.3231 13.7268 10.3023 13.8071 10.2725 13.8845C10.2279 14.0274 10.1475 14.1613 10.0671 14.2506C9.96891 14.1613 9.89747 14.0363 9.8439 13.8845C9.82008 13.8071 9.79925 13.7208 9.78139 13.6256C9.77246 13.5363 9.77246 13.447 9.77246 13.3487C9.78139 13.1523 9.82604 12.9737 9.89748 12.8219C9.95999 12.6701 10.0493 12.554 10.1475 12.4736Z" fill="#C2D0D3"/>
</g>
<g style="mix-blend-mode:multiply" opacity="0.4">
<path d="M26.8552 6.85791L26.7391 7.71515L27.3821 8.29558L26.5337 8.44738L26.1766 9.23319L25.7658 8.47417L24.9175 8.37595L25.5068 7.75087L25.3372 6.91149L26.114 7.28653L26.8552 6.85791Z" fill="#C2D0D3"/>
</g>
<g style="mix-blend-mode:multiply" opacity="0.4">
<path d="M23.6123 5.25928L23.7641 6.10759L24.5499 6.46478L23.7909 6.87554L23.6927 7.72385L23.0766 7.1345L22.2282 7.30416L22.6033 6.52728L22.1836 5.77719L23.0319 5.90221L23.6123 5.25928Z" fill="#C2D0D3"/>
</g>
<g style="mix-blend-mode:multiply" opacity="0.4">
<path d="M20.0325 4.74121L20.4433 5.50023L21.3005 5.59845L20.7022 6.22353L20.8808 7.06291L20.1039 6.68787L19.3539 7.11649L19.4699 6.25925L18.8359 5.67882L19.6843 5.52702L20.0325 4.74121Z" fill="#C2D0D3"/>
</g>
<g style="mix-blend-mode:multiply" opacity="0.4">
<path d="M16.4694 5.35645L17.0945 5.95473L17.9339 5.77614L17.5588 6.55302L17.9874 7.3031L17.1391 7.18702L16.5587 7.82102L16.4069 6.97271L15.6211 6.62445L16.3801 6.21369L16.4694 5.35645Z" fill="#C2D0D3"/>
</g>
<g style="mix-blend-mode:multiply" opacity="0.4">
<path d="M13.2722 7.04479L14.0491 7.41983L14.7992 6.99121L14.6831 7.84846L15.3171 8.42888L14.4688 8.58068L14.1116 9.36649L13.7098 8.60747L12.8525 8.50925L13.4508 7.88417L13.2722 7.04479Z" fill="#C2D0D3"/>
</g>
<g style="mix-blend-mode:multiply" opacity="0.4">
<path d="M12.6213 9.98282C12.6213 9.75065 12.4337 9.5542 12.1926 9.5542C11.9605 9.5542 11.7729 9.75065 11.7729 9.98282C11.7729 10.2239 11.9605 10.4114 12.1926 10.4114C12.4337 10.4114 12.6213 10.2239 12.6213 9.98282Z" fill="#C2D0D3"/>
</g>
<g style="mix-blend-mode:multiply" opacity="0.4">
<path d="M28.6585 9.98282C28.6585 9.75065 28.471 9.5542 28.2299 9.5542C27.9977 9.5542 27.8013 9.75065 27.8013 9.98282C27.8013 10.2239 27.9977 10.4114 28.2299 10.4114C28.471 10.4114 28.6585 10.2239 28.6585 9.98282Z" fill="#C2D0D3"/>
</g>
<g style="mix-blend-mode:multiply" opacity="0.8">
<path d="M23.7648 18.3316C23.8898 18.5102 23.9523 18.7364 23.9523 19.0103C23.9523 19.3436 23.8601 19.6413 23.6755 19.9032C23.485 20.1651 23.2261 20.2961 22.8987 20.2961C22.345 20.2961 21.5235 20.2515 20.4341 20.1622C20.2138 20.1503 19.809 20.1235 19.2196 20.0818C18.6303 20.0461 18.1689 20.0282 17.8356 20.0282C17.6867 20.0282 17.4694 20.0848 17.1837 20.1979C17.1242 20.2098 17.0111 20.2425 16.8444 20.2961C16.6777 20.3437 16.5348 20.3676 16.4157 20.3676C16.2312 20.3676 16.0794 20.2753 15.9603 20.0907C15.8413 19.9062 15.7817 19.6294 15.7817 19.2603C15.7817 18.8495 15.8681 18.531 16.0407 18.3048C16.2133 18.0786 16.4842 17.8762 16.8533 17.6976C17.6331 17.3166 18.3743 16.8284 19.0768 16.2331C19.7733 15.6378 20.3299 14.9919 20.7466 14.2954C21.1693 13.6049 21.3806 12.947 21.3806 12.322C21.3806 11.8219 21.2794 11.4528 21.077 11.2147C20.8746 10.9766 20.5561 10.8575 20.1215 10.8575C19.6155 10.8575 19.2077 11.0123 18.8982 11.3218C18.5946 11.6255 18.4428 12.0541 18.4428 12.6077C18.4428 13.3638 18.1034 13.7418 17.4248 13.7418C17.1033 13.7418 16.8533 13.6376 16.6747 13.4292C16.4961 13.2268 16.4068 12.9322 16.4068 12.5452C16.4068 11.9082 16.5556 11.3189 16.8533 10.7771C17.1509 10.2414 17.6004 9.80976 18.2017 9.48234C18.797 9.15492 19.5292 8.99121 20.3984 8.99121C21.4342 8.99121 22.2468 9.27994 22.8361 9.85739C23.4195 10.4348 23.7112 11.2355 23.7112 12.2595C23.7112 13.2358 23.3302 14.2537 22.5683 15.3134C21.8003 16.379 20.696 17.3226 19.2554 18.1441L23.2112 18.0637C23.4553 18.0637 23.6398 18.153 23.7648 18.3316Z" fill="#C2D0D3"/>
<path d="M23.7648 18.3316C23.8898 18.5102 23.9523 18.7364 23.9523 19.0103C23.9523 19.3436 23.8601 19.6413 23.6755 19.9032C23.485 20.1651 23.2261 20.2961 22.8987 20.2961C22.345 20.2961 21.5235 20.2515 20.4341 20.1622C20.2138 20.1503 19.809 20.1235 19.2196 20.0818C18.6303 20.0461 18.1689 20.0282 17.8356 20.0282C17.6867 20.0282 17.4694 20.0848 17.1837 20.1979C17.1242 20.2098 17.0111 20.2425 16.8444 20.2961C16.6777 20.3437 16.5348 20.3676 16.4157 20.3676C16.2312 20.3676 16.0794 20.2753 15.9603 20.0907C15.8413 19.9062 15.7817 19.6294 15.7817 19.2603C15.7817 18.8495 15.8681 18.531 16.0407 18.3048C16.2133 18.0786 16.4842 17.8762 16.8533 17.6976C17.6331 17.3166 18.3743 16.8284 19.0768 16.2331C19.7733 15.6378 20.3299 14.9919 20.7466 14.2954C21.1693 13.6049 21.3806 12.947 21.3806 12.322C21.3806 11.8219 21.2794 11.4528 21.077 11.2147C20.8746 10.9766 20.5561 10.8575 20.1215 10.8575C19.6155 10.8575 19.2077 11.0123 18.8982 11.3218C18.5946 11.6255 18.4428 12.0541 18.4428 12.6077C18.4428 13.3638 18.1034 13.7418 17.4248 13.7418C17.1033 13.7418 16.8533 13.6376 16.6747 13.4292C16.4961 13.2268 16.4068 12.9322 16.4068 12.5452C16.4068 11.9082 16.5556 11.3189 16.8533 10.7771C17.1509 10.2414 17.6004 9.80976 18.2017 9.48234C18.797 9.15492 19.5292 8.99121 20.3984 8.99121C21.4342 8.99121 22.2468 9.27994 22.8361 9.85739C23.4195 10.4348 23.7112 11.2355 23.7112 12.2595C23.7112 13.2358 23.3302 14.2537 22.5683 15.3134C21.8003 16.379 20.696 17.3226 19.2554 18.1441L23.2112 18.0637C23.4553 18.0637 23.6398 18.153 23.7648 18.3316Z" fill="black" fill-opacity="0.2"/>
</g>
<g style="mix-blend-mode:screen" opacity="0.3">
<path d="M19.9962 3.62549C19.7283 3.62549 19.4634 3.63442 19.2014 3.65228L8.13763 14.7161C8.11977 14.984 8.11084 15.2519 8.11084 15.5197C8.11084 17.5378 8.6109 19.4309 9.49493 21.1008L25.5772 5.01851C23.9163 4.13448 22.0143 3.62549 19.9962 3.62549Z" fill="#C2D0D3"/>
</g>
<g style="mix-blend-mode:screen" opacity="0.3">
<path d="M26.7198 5.70605L10.1821 22.2348C10.709 22.9938 11.3073 23.6903 11.9859 24.3065L28.7825 7.50984C28.1664 6.83119 27.4699 6.22397 26.7198 5.70605Z" fill="#C2D0D3"/>
</g>
<g style="mix-blend-mode:screen" opacity="0.3">
<path d="M31.8903 15.5196C31.8903 14.9302 31.8486 14.3498 31.7653 13.7783L18.2637 27.2888C18.8292 27.3722 19.4067 27.4139 19.996 27.4139C21.3176 27.4139 22.5767 27.1995 23.7643 26.8066L31.2831 19.279C31.676 18.1003 31.8903 16.8323 31.8903 15.5196Z" fill="#C2D0D3"/>
</g>
<path fill-rule="evenodd" clip-rule="evenodd" d="M19.9942 27.5552C13.3595 27.5552 7.95703 22.1528 7.95703 15.5181C7.95703 8.88338 13.3595 3.48096 19.9942 3.48096C26.6378 3.48096 32.0402 8.88338 32.0402 15.5181C32.0402 22.1528 26.6378 27.5552 19.9942 27.5552ZM19.9942 3.77563C13.5202 3.77563 8.25171 9.04411 8.25171 15.5181C8.25171 21.9921 13.5202 27.2695 19.9942 27.2695C26.4771 27.2695 31.7456 21.9921 31.7456 15.5181C31.7456 9.04411 26.4771 3.77563 19.9942 3.77563Z" fill="#C2D0D3"/>
<g style="mix-blend-mode:screen" opacity="0.5">
<path fill-rule="evenodd" clip-rule="evenodd" d="M19.9942 27.5552C13.3595 27.5552 7.95703 22.1528 7.95703 15.5181C7.95703 8.88338 13.3595 3.48096 19.9942 3.48096C26.6378 3.48096 32.0402 8.88338 32.0402 15.5181C32.0402 22.1528 26.6378 27.5552 19.9942 27.5552ZM19.9942 3.77563C13.5202 3.77563 8.25171 9.04411 8.25171 15.5181C8.25171 21.9921 13.5202 27.2695 19.9942 27.2695C26.4771 27.2695 31.7456 21.9921 31.7456 15.5181C31.7456 9.04411 26.4771 3.77563 19.9942 3.77563Z" fill="#C2D0D3"/>
</g>
<path d="M12.6822 7.83185C11.1374 7.27822 10.7088 6.84066 10.1819 5.20654C9.66402 6.84066 9.2354 7.27822 7.68164 7.83185C9.2354 8.38549 9.66402 8.83197 10.1819 10.4572C10.7088 8.83197 11.1374 8.38549 12.6822 7.83185Z" fill="white"/>
<path d="M30.4967 22.5112C29.0323 21.9933 28.6304 21.5647 28.1393 20.0288C27.6392 21.5647 27.2374 21.9933 25.7729 22.5112C27.2374 23.0292 27.6392 23.4489 28.1393 24.9937C28.6304 23.4489 29.0323 23.0292 30.4967 22.5112Z" fill="white"/>
<path d="M31.6671 24.9948C30.9438 24.7359 30.7473 24.5305 30.4973 23.7715C30.2562 24.5305 30.0597 24.7359 29.3364 24.9948C30.0597 25.2538 30.2562 25.4592 30.4973 26.2182C30.7473 25.4592 30.9438 25.2538 31.6671 24.9948Z" fill="white"/>
<path d="M14.0305 4.85827C13.2983 4.59931 13.1018 4.39392 12.8607 3.62598C12.6196 4.39392 12.4142 4.59931 11.6909 4.85827C12.4142 5.10829 12.6196 5.32261 12.8607 6.08162C13.1018 5.32261 13.2983 5.10829 14.0305 4.85827Z" fill="white"/>
</svg>
