<svg width="102" height="37" viewBox="0 0 102 37" fill="none" xmlns="http://www.w3.org/2000/svg">
<path d="M80.44 6.64803H97.88V9.68803H80.44V6.64803ZM87.096 3.83203H90.808V8.12003H87.096V3.83203ZM87.096 16.504H90.808V20.536H87.096V16.504ZM80.376 19.192H97.912V22.328H80.376V19.192ZM83 9.88003L86.232 9.20803C86.68 10.328 87.096 11.8 87.256 12.696L83.864 13.496C83.736 12.536 83.384 11 83 9.88003ZM91.704 8.88803L95.512 9.46403C94.904 11 94.328 12.504 93.88 13.528L90.648 12.984C91.064 11.8 91.512 10.104 91.704 8.88803ZM80.056 12.792H98.232V18.168H94.68V15.768H83.416V18.2H80.056V12.792ZM85.656 24.12H94.008V27.224H85.656V24.12ZM92.728 24.12H96.408C96.408 24.12 96.376 24.984 96.344 25.432C96.024 29.88 95.672 31.928 94.872 32.76C94.232 33.464 93.528 33.72 92.6 33.784C91.8 33.88 90.392 33.912 88.888 33.88C88.824 32.888 88.44 31.512 87.928 30.68C89.112 30.776 90.264 30.808 90.744 30.808C91.224 30.808 91.48 30.744 91.768 30.488C92.184 30.04 92.504 28.472 92.728 24.6V24.12ZM69.048 10.456H79.64V14.008H69.048V10.456ZM72.952 3.83203H76.44V33.88H72.952V3.83203ZM72.888 12.888L75.032 13.624C74.104 18.68 72.28 24.856 70.008 28.152C69.688 27.128 68.856 25.656 68.312 24.76C70.36 21.976 72.152 16.952 72.888 12.888ZM76.28 15.32C77.016 16.28 79.736 20.472 80.28 21.432L78.296 24.184C77.528 22.232 75.576 18.488 74.68 16.888L76.28 15.32ZM85.144 20.472H88.792C88.44 26.84 87.384 31.416 81.016 33.976C80.632 33.08 79.672 31.768 78.904 31.096C84.248 29.112 84.856 25.592 85.144 20.472Z" fill="url(#paint0_linear_2170_9708)"/>
<path d="M49.272 5.65603H64.92V9.30403H49.272V5.65603ZM57.4 15.608H61.336V29.432C61.336 31.48 60.92 32.568 59.512 33.176C58.136 33.752 56.12 33.784 53.24 33.784C53.112 32.664 52.6 31 52.088 29.88C53.912 29.976 56.024 29.976 56.6 29.976C57.208 29.944 57.4 29.816 57.4 29.336V15.608ZM47.896 14.52H65.752V18.168H47.896V14.52ZM40.728 18.296L44.088 14.936L44.568 15.128V33.912H40.728V18.296ZM44.344 10.808L47.992 12.184C45.464 16.44 41.528 20.92 38.104 23.736C37.56 22.936 36.248 21.208 35.48 20.44C38.744 18.136 42.232 14.424 44.344 10.808ZM43.128 3.83203L46.808 5.33603C44.472 8.37603 41.016 11.704 37.976 13.816C37.464 12.952 36.472 11.448 35.832 10.68C38.488 8.95203 41.56 6.07203 43.128 3.83203Z" fill="url(#paint1_linear_2170_9708)"/>
<path d="M18.488 3.7998H21.912V17.3678C21.912 23.8318 21.24 29.8798 15.64 33.8798C15.032 33.1118 13.72 31.9278 12.888 31.3518C17.88 27.8958 18.488 22.9038 18.488 17.3678V3.7998ZM24.152 3.7998H27.8V33.8478H24.152V3.7998ZM13.784 9.0798H19.992V12.5358H13.784V9.0798ZM26.072 9.0798H32.824V12.5358H26.072V9.0798ZM26.328 15.7998H32.472V19.1918H26.328V15.7998ZM26.008 22.7118H33.336V26.1678H26.008V22.7118ZM14.04 15.7998H20.12V19.1918H14.04V15.7998ZM12.056 24.0878C13.88 23.6078 16.408 22.8078 19 21.9758L19.576 24.9838C17.528 25.8478 15.384 26.6798 13.496 27.3838L12.056 24.0878ZM3 19.9278C5.56 19.3518 9.368 18.3278 12.984 17.3038L13.496 20.7598C10.2 21.7838 6.68 22.8078 3.864 23.6078L3 19.9278ZM3.512 9.9118H13.304V13.4318H3.512V9.9118ZM6.904 3.8638H10.424V29.8158C10.424 31.6078 10.104 32.5998 9.112 33.1758C8.152 33.7838 6.776 33.9118 4.696 33.9118C4.6 32.9518 4.152 31.3838 3.704 30.3278C4.856 30.3918 5.976 30.3918 6.36 30.3598C6.744 30.3598 6.904 30.2638 6.904 29.8158V3.8638Z" fill="url(#paint2_linear_2170_9708)"/>
<path fill-rule="evenodd" clip-rule="evenodd" d="M79.44 3.81875C79.7528 3.70819 80.0894 3.64803 80.44 3.64803H84.1016C84.1966 2.07687 85.501 0.832031 87.096 0.832031H90.808C92.4031 0.832031 93.7074 2.07687 93.8025 3.64803H97.88C99.5369 3.64803 100.88 4.99118 100.88 6.64803V9.68803C100.88 10.1396 100.78 10.5678 100.602 10.9519C100.997 11.46 101.232 12.0985 101.232 12.792V18.168C101.232 18.6535 101.117 19.112 100.912 19.5177V22.328C100.912 23.4534 100.292 24.434 99.3757 24.9474C99.3647 25.1801 99.351 25.4407 99.3364 25.6458L99.3363 25.6473C99.1757 27.8795 98.9982 29.6605 98.7328 31.0249C98.4906 32.2701 98.084 33.7263 97.0666 34.8057C95.8113 36.1715 94.3448 36.6576 92.8833 36.7713C91.8625 36.8862 90.3192 36.9112 88.8242 36.8794C87.4617 36.8504 86.3169 35.9133 85.985 34.6382C84.8893 35.4589 83.6122 36.1657 82.135 36.7595C80.8864 37.2615 79.4956 36.8645 78.6869 35.868C78.1372 36.4887 77.3343 36.88 76.44 36.88H72.952C71.2952 36.88 69.952 35.5369 69.952 33.88V31.1516C69.8214 31.1491 69.6901 31.1381 69.5588 31.1182C68.4241 30.9463 67.4869 30.1422 67.1446 29.0469C66.9483 28.4187 66.3065 27.2375 65.7477 26.317C65.1169 25.2781 65.1753 23.9613 65.8955 22.9823C66.9149 21.5966 67.9332 19.3772 68.7303 16.9914C67.2228 16.8327 66.048 15.5576 66.048 14.008V10.456C66.048 8.79918 67.3912 7.45603 69.048 7.45603H69.952V3.83203C69.952 2.17518 71.2952 0.832031 72.952 0.832031H76.44C78.0924 0.832031 79.4328 2.168 79.44 3.81875ZM76.44 3.83203H72.952V10.456H69.048V14.008H72.6638C72.6021 14.2907 72.5359 14.5763 72.4656 14.8641C72.3874 15.1837 72.3041 15.5058 72.2159 15.8292C72.109 16.2211 71.9951 16.6149 71.8745 17.008C71.8287 17.1577 71.7819 17.3073 71.7341 17.4566C71.2293 19.0365 70.6224 20.5924 69.952 21.9701C69.6414 22.6085 69.3171 23.2087 68.983 23.7553C68.7632 24.1148 68.5392 24.4512 68.312 24.76C68.3475 24.8185 68.3843 24.8795 68.422 24.9426C68.9313 25.7943 69.6236 27.041 69.952 27.9829C69.9721 28.0405 69.9908 28.0969 70.008 28.152C70.5846 27.3156 71.1323 26.2936 71.6439 25.1516C71.6942 25.0392 71.7442 24.9256 71.7939 24.811C72.2059 23.8593 72.5932 22.8318 72.952 21.764V33.88H76.44V20.2142C76.4679 20.2692 76.4958 20.3244 76.5237 20.3797C76.636 20.6021 76.7478 20.8257 76.8582 21.0485C77.0365 21.4086 77.2107 21.7664 77.376 22.1134C77.4103 22.1854 77.4443 22.257 77.4778 22.328C77.5659 22.5149 77.651 22.6979 77.7323 22.8757C77.9538 23.36 78.1472 23.8057 78.296 24.184L80.28 21.432C80.2439 21.3683 80.1982 21.2903 80.1441 21.2C80.1169 21.1544 80.0874 21.1057 80.056 21.0541C79.8954 20.79 79.6831 20.4499 79.44 20.0664C79.2668 19.7931 79.0779 19.4977 78.881 19.192C78.6724 18.8682 78.4547 18.5329 78.2371 18.2C78.1574 18.0782 78.0778 17.9567 77.9986 17.8363C77.9447 17.7544 77.8911 17.6729 77.8377 17.5922C77.7057 17.3922 77.5757 17.1964 77.45 17.008C77.4361 16.9872 77.4223 16.9665 77.4085 16.9459C77.2861 16.7629 77.1679 16.5874 77.056 16.4225C76.8985 16.1904 76.7534 15.9794 76.6263 15.7981C76.5589 15.702 76.4965 15.6142 76.44 15.536V14.008H79.64V10.456H76.44V3.83203ZM80.056 12.792V18.2H83.416V15.768H94.68V18.168H98.232V12.792H94.1913C94.1946 12.784 94.1979 12.776 94.2012 12.768C94.2121 12.7415 94.223 12.7149 94.234 12.688C94.282 12.5709 94.3309 12.4504 94.3807 12.327C94.5983 11.7876 94.8322 11.1919 95.0757 10.572C95.1765 10.3154 95.2789 10.0547 95.3825 9.79203C95.3961 9.7574 95.4098 9.72273 95.4235 9.68803H97.88V6.64803H90.808V3.83203H87.096V6.64803H80.44V9.68803H83.9234L83 9.88003C83.074 10.0957 83.1467 10.3269 83.217 10.5663C83.4206 11.261 83.6028 12.0259 83.7299 12.688C83.735 12.7149 83.7401 12.7415 83.7451 12.768C83.7463 12.7749 83.7476 12.7817 83.7489 12.7885C83.7491 12.7897 83.7493 12.7908 83.7496 12.792H80.056ZM86.849 12.792H90.7143C90.717 12.7841 90.7197 12.7761 90.7224 12.768C90.7313 12.7416 90.7402 12.7149 90.7492 12.688C90.9111 12.2013 91.0744 11.6501 91.2223 11.0917C91.3121 10.753 91.3962 10.4116 91.471 10.0804C91.4929 9.98327 91.514 9.88706 91.5342 9.79203C91.5417 9.7572 91.5489 9.72253 91.5561 9.68803H86.4146C86.4271 9.72252 86.4395 9.75719 86.4519 9.79203C86.4532 9.79552 86.4544 9.799 86.4557 9.80249C86.6069 10.2283 86.7496 10.6782 86.8739 11.1119C86.8915 11.1734 86.9088 11.2346 86.9257 11.2953C87.0702 11.8159 87.1856 12.3042 87.2546 12.688C87.2551 12.6907 87.2555 12.6934 87.256 12.696L86.849 12.792ZM87.096 19.192H80.376V22.328H85.0114C85.001 22.44 84.9901 22.5511 84.9786 22.6613C84.9262 23.1663 84.8621 23.6525 84.7808 24.12C84.7081 24.5376 84.6216 24.9403 84.5173 25.328C84.3352 26.0054 84.0985 26.6373 83.7859 27.224C83.5484 27.6698 83.267 28.0895 82.9323 28.4833C82.5795 28.8984 82.1674 29.2847 81.685 29.6424C81.062 30.1043 80.3216 30.5185 79.44 30.8854C79.2669 30.9574 79.0883 31.0276 78.904 31.096C79.0759 31.2465 79.2575 31.429 79.44 31.6317C79.9541 32.2026 80.4761 32.9339 80.8138 33.561C80.8918 33.706 80.96 33.8454 81.016 33.976C81.2686 33.8745 81.5129 33.7697 81.7491 33.6618C82.4655 33.3346 83.1076 32.9783 83.6835 32.5933C84.187 32.2568 84.6398 31.8984 85.0474 31.5183C85.4835 31.1115 85.8678 30.68 86.2069 30.224C86.7805 29.4526 87.2246 28.6112 87.5711 27.7013C87.6309 27.5442 87.6877 27.3851 87.7419 27.224H92.5288C92.3662 28.8373 92.1701 29.7558 91.9404 30.224C91.8849 30.3372 91.8274 30.424 91.768 30.488C91.603 30.6347 91.4485 30.7183 91.2564 30.763C91.1132 30.7964 90.949 30.808 90.744 30.808C90.4769 30.808 90.0017 30.7981 89.4287 30.7728C88.972 30.7526 88.4531 30.7226 87.928 30.68C88.1675 31.0692 88.379 31.5774 88.5428 32.1097C88.7141 32.6662 88.8333 33.249 88.878 33.7495C88.8819 33.7937 88.8853 33.8372 88.888 33.88C90.392 33.912 91.8 33.88 92.6 33.784C93.528 33.72 94.232 33.464 94.872 32.76C95.3692 32.243 95.6934 31.2562 95.9443 29.5156C96.0385 28.8627 96.1223 28.1039 96.2011 27.224C96.2042 27.1896 96.2073 27.1549 96.2103 27.12C96.2562 26.6 96.3004 26.0383 96.344 25.432C96.3463 25.3994 96.3487 25.3646 96.351 25.328C96.3805 24.8628 96.408 24.12 96.408 24.12H88.4531C88.4813 23.9275 88.5076 23.7328 88.5322 23.536C88.5349 23.5147 88.5375 23.4934 88.5402 23.472C88.5861 23.0983 88.6258 22.717 88.6607 22.328H97.912V19.192H90.808V16.504H87.096V19.192ZM79.44 27.5401C80.4131 26.9494 80.9022 26.3087 81.2199 25.6527C81.2705 25.5481 81.3184 25.44 81.3637 25.328H81.1696L80.7295 25.9384C80.3969 26.3998 79.9475 26.748 79.44 26.9573V27.5401Z" fill="#9E5E4C"/>
<path fill-rule="evenodd" clip-rule="evenodd" d="M48.3908 2.78731C48.6694 2.70182 48.9653 2.65581 49.272 2.65581H64.92C66.5769 2.65581 67.92 3.99896 67.92 5.65581V9.30381C67.92 10.2753 67.4583 11.1388 66.7423 11.6871C67.9126 12.0962 68.752 13.21 68.752 14.5198V18.1678C68.752 19.8247 67.4088 21.1678 65.752 21.1678H64.336V29.4318C64.336 30.5836 64.2331 31.899 63.6738 33.1056C63.04 34.4727 61.9803 35.3777 60.7013 35.93L60.6704 35.9431C59.5487 36.4127 58.3306 36.5974 57.171 36.6869C56.0009 36.7773 54.662 36.7838 53.24 36.7838C51.7149 36.7838 50.4326 35.6396 50.2594 34.1245C50.1755 33.3903 49.7745 32.0347 49.3596 31.1271C48.9234 30.1729 49.0173 29.0601 49.6074 28.1926C50.1975 27.325 51.1979 26.8288 52.2457 26.884C52.9531 26.9212 53.711 26.9433 54.4 26.9565V21.1678H47.896C47.7852 21.1678 47.6757 21.1618 47.568 21.1501V33.9118C47.568 35.5687 46.2248 36.9118 44.568 36.9118H40.728C39.0711 36.9118 37.728 35.5687 37.728 33.9118V26.7122C37.7111 26.71 37.6943 26.7078 37.6774 26.7053C36.8429 26.5854 36.0973 26.1199 35.6232 25.4227C35.1162 24.6771 33.9283 23.1308 33.3587 22.5611C32.733 21.9355 32.4155 21.0656 32.4909 20.184C32.5664 19.3025 33.0271 18.4992 33.7499 17.9889C34.5131 17.4502 35.294 16.8212 36.0648 16.1283C35.8008 15.9101 35.5734 15.646 35.3951 15.3452C34.9173 14.5389 34.0191 13.1904 33.5273 12.6004C32.9786 11.9419 32.7377 11.0802 32.8655 10.2326C32.9933 9.38504 33.4775 8.63261 34.196 8.16517C36.5825 6.61252 39.3562 3.98873 40.6703 2.11143C41.474 0.96326 42.9656 0.524568 44.263 1.05479L47.943 2.55879C48.0996 2.62283 48.2493 2.69944 48.3908 2.78731ZM49.272 5.65581V9.30381H64.92V5.65581H49.272ZM43.128 3.83181C42.0233 5.40992 40.1722 7.30568 38.2459 8.89248C37.4379 9.55802 36.6168 10.1692 35.832 10.6798C35.9797 10.8571 36.1462 11.0736 36.3212 11.3124C36.7303 11.8705 37.1859 12.5504 37.5574 13.136C37.7155 13.3853 37.8584 13.6174 37.976 13.8158C38.3466 13.5583 38.7235 13.2827 39.1037 12.9918C39.523 12.671 39.9464 12.3315 40.3702 11.977C41.1608 11.3158 41.9527 10.6024 42.7219 9.86038C43.4062 9.20026 44.0724 8.51758 44.7035 7.82904C44.7285 7.80176 44.7534 7.77447 44.7783 7.74717C45.3047 7.16994 45.8059 6.58906 46.272 6.01436C46.3692 5.89455 46.4648 5.775 46.5588 5.65581C46.6432 5.54884 46.7263 5.44215 46.808 5.33581L43.128 3.83181ZM44.344 10.8078C44.1175 11.1956 43.8751 11.5845 43.619 11.9727C43.2957 12.4625 42.9504 12.9511 42.587 13.4348C42.1436 14.0248 41.6734 14.6075 41.1834 15.1761C40.632 15.816 40.0557 16.438 39.4647 17.0325C39.0299 17.4697 38.5873 17.8921 38.1407 18.2958C38.0404 18.3865 37.9399 18.4762 37.8392 18.565C37.8022 18.5977 37.7651 18.6302 37.728 18.6626C36.9797 19.3163 36.224 19.9146 35.48 20.4398C35.7117 20.6715 35.9929 20.9906 36.2876 21.3451C36.6604 21.7938 37.0549 22.2994 37.398 22.7568C37.5149 22.9127 37.6259 23.0631 37.728 23.2036C37.8744 23.4051 38.0025 23.5866 38.104 23.7358C38.8368 23.1331 39.5931 22.4542 40.354 21.7175C40.4786 21.597 40.6033 21.4748 40.728 21.3512V33.9118H44.568V17.0759C44.6781 16.9386 44.7874 16.8006 44.896 16.6623C45.0308 16.4903 45.1644 16.3177 45.2966 16.1445C45.5537 15.8076 45.8056 15.4684 46.0514 15.1278C46.1402 15.0046 46.2283 14.8813 46.3155 14.7578C46.3715 14.6785 46.4272 14.5992 46.4824 14.5198C46.7039 14.2018 46.9195 13.8831 47.1285 13.5645C47.3958 13.1571 47.6521 12.7499 47.896 12.3444C47.9282 12.2909 47.9602 12.2373 47.992 12.1838L44.344 10.8078ZM47.896 18.1678H57.4V29.3358C57.4 29.8158 57.208 29.9438 56.6 29.9758C56.378 29.9758 55.928 29.9758 55.3543 29.9703C54.4391 29.9616 53.2091 29.9388 52.088 29.8798C52.4805 30.7384 52.873 31.9168 53.0925 32.9246C53.1593 33.2314 53.2101 33.5224 53.24 33.7838C56.12 33.7838 58.136 33.7518 59.512 33.1758C60.92 32.5678 61.336 31.4798 61.336 29.4318V18.1678H65.752V14.5198H47.896V18.1678Z" fill="#9E5E4C"/>
<path fill-rule="evenodd" clip-rule="evenodd" d="M15.488 3.7998C15.488 2.14295 16.8312 0.799805 18.488 0.799805H21.912C22.3079 0.799805 22.686 0.876505 23.032 1.01586C23.3781 0.876505 23.7561 0.799805 24.152 0.799805H27.8C29.4569 0.799805 30.8 2.14295 30.8 3.7998V6.0798H32.824C34.4809 6.0798 35.824 7.42295 35.824 9.0798V12.5358C35.824 13.2572 35.5694 13.9191 35.1451 14.4366C35.3541 14.8456 35.472 15.3089 35.472 15.7998V19.1918C35.472 19.6148 35.3845 20.0173 35.2265 20.3823C35.9035 20.9324 36.336 21.7716 36.336 22.7118V26.1678C36.336 27.8247 34.9929 29.1678 33.336 29.1678H30.8V33.8478C30.8 35.5047 29.4569 36.8478 27.8 36.8478H24.152C22.4952 36.8478 21.152 35.5047 21.152 33.8478V32.6487C20.1706 33.9748 18.9359 35.2123 17.3837 36.321C16.0823 37.2506 14.2806 36.9958 13.2879 35.7419C13.0513 35.443 12.5646 34.9651 12.0765 34.5365C11.6912 35.0081 11.2214 35.4123 10.6685 35.7408C8.87475 36.8525 6.64033 36.9118 4.69601 36.9118C3.15476 36.9118 1.86426 35.7439 1.7109 34.2103C1.65321 33.6334 1.30972 32.3656 0.942265 31.4995C0.53764 30.5457 0.653765 29.4507 1.24943 28.603C1.84509 27.7553 2.83598 27.275 3.87042 27.3324C3.88162 27.333 3.89282 27.3337 3.90401 27.3343V26.6075C3.36053 26.6148 2.82003 26.4742 2.34302 26.1937C1.63649 25.7781 1.13078 25.0915 0.943426 24.2935L0.0794264 20.6135C-0.103537 19.8342 0.0325273 19.0141 0.45735 18.3357C0.882173 17.6572 1.56052 17.1767 2.34147 17.001C2.81859 16.8936 3.34278 16.7696 3.90401 16.6321V16.4318H3.51201C1.85516 16.4318 0.512011 15.0887 0.512011 13.4318V9.9118C0.512011 8.25495 1.85516 6.9118 3.51201 6.9118H3.90401V3.8638C3.90401 2.20695 5.24716 0.863804 6.90401 0.863804H10.424C12.0809 0.863804 13.424 2.20695 13.424 3.8638V6.10118C13.542 6.08707 13.6622 6.0798 13.784 6.0798H15.488V3.7998ZM18.488 9.0798H13.784V12.5358H18.488V15.7998H14.04V19.1918H18.4603C18.4494 19.5155 18.4348 19.8369 18.4158 20.1556C18.3758 20.8235 18.3161 21.48 18.2291 22.1234C18.2261 22.1462 18.2229 22.169 18.2198 22.1918C18.2182 22.2037 18.2165 22.2155 18.2148 22.2274C17.5024 22.4552 16.7998 22.6783 16.1207 22.8906C15.852 22.9747 15.587 23.057 15.3264 23.1372C15.2097 23.1732 15.0938 23.2087 14.979 23.2438C14.9737 23.2454 14.9685 23.247 14.9632 23.2486C14.7481 23.3143 14.5365 23.3784 14.3289 23.4407C14.0178 23.534 13.7156 23.6233 13.424 23.7077C12.9357 23.8491 12.4771 23.977 12.056 24.0878L13.496 27.3838C14.6836 26.941 15.9724 26.4475 17.2749 25.9273C16.7905 27.1424 16.1192 28.2818 15.1924 29.3276C14.9733 29.5748 14.74 29.8168 14.4914 30.0533C14.4072 30.1335 14.3211 30.2131 14.2334 30.292C13.9649 30.5333 13.6799 30.7686 13.3772 30.9977C13.219 31.1175 13.056 31.2355 12.888 31.3518C13.0147 31.4395 13.1525 31.5413 13.2973 31.6536C13.9138 32.1318 14.6563 32.8 15.202 33.3792C15.3697 33.5572 15.5188 33.7267 15.64 33.8798C16.0566 33.5823 16.4459 33.2734 16.8097 32.9538C17.1987 32.6121 17.5585 32.2582 17.8913 31.893C19.0003 30.6757 19.8091 29.3322 20.3969 27.8929C20.4647 27.7269 20.5296 27.5596 20.5916 27.3911C20.8122 26.7918 20.9972 26.177 21.152 25.5488C21.2256 25.25 21.2924 24.9482 21.353 24.6435C21.5427 23.6898 21.6712 22.7085 21.7566 21.7065C21.7641 21.6191 21.7712 21.5315 21.778 21.4438C21.7911 21.275 21.8031 21.1056 21.8139 20.9357C21.8507 20.3601 21.8751 19.7784 21.8903 19.1918C21.906 18.5885 21.912 17.98 21.912 17.3678V3.7998H18.488V9.0798ZM10.424 21.6964C10.7334 21.6037 11.0433 21.5103 11.3531 21.4166C11.5246 21.3647 11.6961 21.3126 11.8673 21.2605C12.3892 21.1017 12.9092 20.9419 13.424 20.7822C13.448 20.7747 13.472 20.7673 13.496 20.7598L12.984 17.3038C12.3394 17.4864 11.6887 17.6689 11.04 17.8489C10.8344 17.906 10.629 17.9628 10.424 18.0192V13.4318H13.304V9.9118H10.424V3.8638H6.90401V9.9118H3.51201V13.4318H6.90401V18.9657C6.01407 19.198 5.16774 19.4125 4.39154 19.6011C4.22575 19.6414 4.06315 19.6805 3.90401 19.7183C3.5884 19.7933 3.2864 19.8634 3.00001 19.9278L3.86401 23.6078C3.87733 23.604 3.89066 23.6002 3.90401 23.5964C4.79324 23.3437 5.75191 23.0689 6.75099 22.779C6.8019 22.7642 6.8529 22.7494 6.90401 22.7345V29.8158C6.90401 29.9652 6.88621 30.0755 6.84825 30.1561C6.77237 30.3172 6.61594 30.3598 6.36001 30.3598C5.97601 30.3918 4.85601 30.3918 3.70401 30.3278C4.07486 31.202 4.44571 32.427 4.6169 33.3675C4.65251 33.5631 4.67948 33.7465 4.69601 33.9118C6.77601 33.9118 8.15201 33.7838 9.11201 33.1758C9.51963 32.9391 9.81379 32.6322 10.0189 32.2284C10.313 31.6495 10.424 30.8715 10.424 29.8158V21.6964ZM6.36001 27.3598C6.35566 27.3598 6.35132 27.3598 6.34697 27.3598ZM24.152 33.8478H27.8V26.1678H33.336V22.7118H27.8V19.1918H32.472V15.7998H27.8V12.5358H32.824V9.0798H27.8V3.7998H24.152V33.8478Z" fill="#9E5E4C"/>
<defs>
<linearGradient id="paint0_linear_2170_9708" x1="51" y1="1.00003" x2="51" y2="37" gradientUnits="userSpaceOnUse">
<stop stop-color="white"/>
<stop offset="0.275" stop-color="#FDE29E"/>
<stop offset="1" stop-color="#FDDA82"/>
</linearGradient>
<linearGradient id="paint1_linear_2170_9708" x1="51" y1="1.00003" x2="51" y2="37" gradientUnits="userSpaceOnUse">
<stop stop-color="white"/>
<stop offset="0.275" stop-color="#FDE29E"/>
<stop offset="1" stop-color="#FDDA82"/>
</linearGradient>
<linearGradient id="paint2_linear_2170_9708" x1="51" y1="0.999805" x2="51" y2="36.9998" gradientUnits="userSpaceOnUse">
<stop stop-color="white"/>
<stop offset="0.275" stop-color="#FDE29E"/>
<stop offset="1" stop-color="#FDDA82"/>
</linearGradient>
</defs>
</svg>
