<svg width="270" height="37" viewBox="0 0 270 37" fill="none" xmlns="http://www.w3.org/2000/svg">
<mask id="path-1-outside-1_2075_18865" maskUnits="userSpaceOnUse" x="122.287" y="0.646484" width="148" height="37" fill="black">
<rect fill="white" x="122.287" y="0.646484" width="148" height="37"/>
<path fill-rule="evenodd" clip-rule="evenodd" d="M248.823 6.46248H255.479V3.64648H259.191V6.46248H266.263V9.50249H263.806C263.697 9.7792 263.589 10.0542 263.483 10.3247L263.46 10.3834L263.458 10.3867C263.143 11.1907 262.843 11.9539 262.574 12.6065H266.615V17.9825H263.063V15.5825H251.799V18.0145H248.439V12.6065H252.132C251.963 11.697 251.683 10.5689 251.383 9.69448L252.306 9.50249H248.823V6.46248ZM254.797 9.50249H259.939C259.728 10.52 259.408 11.6897 259.097 12.6065H255.232L255.639 12.5105C255.501 11.7378 255.172 10.5367 254.797 9.50249Z"/>
<path d="M255.479 16.3185H259.191V19.0065H266.295V22.1425H257.044C256.988 22.759 256.921 23.3564 256.836 23.9345H264.791C264.791 23.9345 264.759 24.7985 264.727 25.2465C264.407 29.6945 264.055 31.7425 263.255 32.5745C262.615 33.2785 261.911 33.5345 260.983 33.5985C260.183 33.6945 258.775 33.7265 257.271 33.6945C257.207 32.7025 256.823 31.3265 256.311 30.4945C257.495 30.5905 258.647 30.6225 259.127 30.6225C259.607 30.6225 259.863 30.5585 260.151 30.3025C260.456 29.9737 260.71 29.0417 260.912 27.0385H256.125C255.135 29.985 253.226 32.2519 249.399 33.7905C249.015 32.8945 248.055 31.5825 247.287 30.9105C251.959 29.176 253.011 26.2676 253.394 22.1425H248.759V19.0065H255.479V16.3185Z"/>
<path d="M237.431 10.2705H241.335V3.64648H244.823V10.2705H248.023V13.8225H244.823V15.3505C245.73 16.6052 248.153 20.3464 248.663 21.2465L246.679 23.9985C246.277 22.9776 245.552 21.4667 244.823 20.0286V33.6945H241.335V21.5785C240.494 24.082 239.495 26.3644 238.391 27.9665C238.071 26.9425 237.239 25.4705 236.695 24.5745C238.558 22.0414 240.21 17.654 241.047 13.8225H237.431V10.2705Z"/>
<path fill-rule="evenodd" clip-rule="evenodd" d="M205.207 4.47887H212.439V11.3589H205.207V4.47887ZM207.927 6.87887V8.92687H209.623V6.87887H207.927Z"/>
<path fill-rule="evenodd" clip-rule="evenodd" d="M213.591 4.47887H220.855V11.3589H213.591V4.47887ZM216.311 6.87887V8.92687H218.039V6.87887H216.311Z"/>
<path d="M220.919 13.0229L223.747 12.6813C223.578 9.93614 223.462 6.97742 223.383 3.83887H226.999C227.033 6.77069 227.139 9.60584 227.307 12.2514L234.167 11.4229L234.583 14.9429L227.581 15.8223C227.775 17.9508 228.012 19.9031 228.287 21.6183C229.349 19.7966 230.21 17.8498 230.839 15.8709L233.751 17.5029C232.736 20.5764 231.206 23.607 229.299 26.2759C229.843 28.046 230.46 29.0719 231.127 29.1189C231.607 29.1509 231.959 27.6469 232.119 24.7669C232.759 25.5669 234.327 26.5589 234.903 26.9109C234.103 32.5109 232.471 33.7589 231.095 33.7269C229.149 33.6389 227.682 32.1682 226.578 29.5589C225.087 31.1019 223.453 32.4171 221.719 33.4069C221.079 32.5109 219.895 31.3909 218.935 30.7189C221.353 29.5645 223.524 27.8141 225.371 25.6982C224.762 23.0912 224.324 19.9157 224.01 16.2709L221.335 16.6069L220.919 13.0229Z"/>
<path d="M228.055 5.59887L230.967 4.09487C232.215 5.75887 233.623 7.99887 234.167 9.50287L231.063 11.1989C230.583 9.69487 229.271 7.32687 228.055 5.59887Z"/>
<path fill-rule="evenodd" clip-rule="evenodd" d="M220.599 24.2549H214.807V25.8549H221.431V29.2149H214.807V33.6949H211.095V29.2149H204.247V25.8549H211.095V24.2549H205.527V12.5749H220.599V24.2549ZM208.695 19.7429V21.4069H211.319V19.7429H208.695ZM214.551 19.7429V21.4069H217.303V19.7429H214.551ZM217.303 17.0869H214.551V15.3909H217.303V17.0869ZM208.695 15.3909H211.319V17.0869H208.695V15.3909Z"/>
<path d="M175.287 18.6091C173.828 19.1103 172.489 19.5487 171.383 19.8707L172.343 23.5507C173.26 23.2066 174.253 22.8319 175.287 22.4388V29.6307C175.287 30.0787 175.127 30.1747 174.743 30.1747C174.359 30.2067 173.239 30.2067 172.087 30.1427C172.535 31.1987 172.983 32.7667 173.079 33.7267C175.159 33.7267 176.535 33.5987 177.495 32.9907C178.487 32.4147 178.807 31.4227 178.807 29.6307V21.0904C179.858 20.6848 180.913 20.2746 181.943 19.8707L181.271 16.4787C180.451 16.7762 179.624 17.0754 178.807 17.3687V13.2467H181.495V9.90754C182.605 11.8575 183.763 14.2333 184.279 15.8387L186.167 14.7019V17.9827C186.167 18.3064 186.164 18.6269 186.158 18.9442L186.103 18.8147C183.863 20.3187 181.591 21.8227 180.087 22.7187L182.039 25.9187C183.213 25.0379 184.515 24.0297 185.787 23.0064C185.166 26.2034 183.592 28.9018 179.767 30.8787C180.599 31.4867 181.911 32.7667 182.487 33.5987C188.855 30.0787 189.687 24.4147 189.687 18.0147V3.99871H186.167V11.5525C185.521 10.2545 184.729 8.86191 183.959 7.67871L181.111 9.24671C181.204 9.40286 181.297 9.56311 181.391 9.72671H178.807V3.67871H175.287V9.72671H171.799V13.2467H175.287V18.6091Z"/>
<path d="M195.351 3.99871H191.735V28.2227C191.735 32.2547 192.567 33.4067 195.447 33.4067H198.263C200.759 33.4067 201.687 31.7107 202.039 27.2947C201.015 27.0707 199.639 26.4307 198.807 25.7907C198.711 29.0547 198.551 29.9827 197.943 29.9827H196.119C195.479 29.9827 195.351 29.7587 195.351 28.2547V20.9378C197.022 22.5779 198.706 24.4753 199.607 25.7267L202.039 23.0707C200.823 21.4707 198.391 19.1027 196.279 17.3747L195.351 18.2898V14.6719L197.431 15.8387C198.221 14.6859 199.11 13.0917 200.023 11.455C200.479 10.6384 200.941 9.81093 201.399 9.02271L197.975 7.29471C197.384 9.14715 196.321 11.5402 195.351 13.3777V3.99871Z"/>
<path fill-rule="evenodd" clip-rule="evenodd" d="M151.125 30.8147V7.54199H160.307C162.065 7.54199 163.565 7.85639 164.807 8.48517C166.057 9.10639 167.008 9.98896 167.66 11.1329C168.319 12.2693 168.648 13.6064 168.648 15.1443C168.648 16.6897 168.315 18.0193 167.648 19.1329C166.982 20.239 166.016 21.0874 164.751 21.6784C164.681 21.7109 164.611 21.7426 164.54 21.7734L169.478 30.8147H164.046L159.638 22.5647H156.046V30.8147H151.125ZM156.046 18.6102H159.387C160.326 18.6102 161.107 18.4814 161.728 18.2238C162.349 17.9662 162.811 17.5799 163.114 17.0647C163.425 16.5496 163.58 15.9094 163.58 15.1443C163.58 14.3715 163.425 13.72 163.114 13.1897C162.811 12.6594 162.345 12.2579 161.716 11.9852C161.095 11.7049 160.311 11.5647 159.364 11.5647H156.046V18.6102Z"/>
<path fill-rule="evenodd" clip-rule="evenodd" d="M125.287 30.8147H130.559L132.286 25.5079H140.689L142.412 30.8147H147.684L139.662 7.54199H133.321L125.287 30.8147ZM139.442 21.667L136.582 12.8602H136.4L133.535 21.667H139.442Z"/>
</mask>
<path fill-rule="evenodd" clip-rule="evenodd" d="M248.823 6.46248H255.479V3.64648H259.191V6.46248H266.263V9.50249H263.806C263.697 9.7792 263.589 10.0542 263.483 10.3247L263.46 10.3834L263.458 10.3867C263.143 11.1907 262.843 11.9539 262.574 12.6065H266.615V17.9825H263.063V15.5825H251.799V18.0145H248.439V12.6065H252.132C251.963 11.697 251.683 10.5689 251.383 9.69448L252.306 9.50249H248.823V6.46248ZM254.797 9.50249H259.939C259.728 10.52 259.408 11.6897 259.097 12.6065H255.232L255.639 12.5105C255.501 11.7378 255.172 10.5367 254.797 9.50249Z" fill="#111122"/>
<path d="M255.479 16.3185H259.191V19.0065H266.295V22.1425H257.044C256.988 22.759 256.921 23.3564 256.836 23.9345H264.791C264.791 23.9345 264.759 24.7985 264.727 25.2465C264.407 29.6945 264.055 31.7425 263.255 32.5745C262.615 33.2785 261.911 33.5345 260.983 33.5985C260.183 33.6945 258.775 33.7265 257.271 33.6945C257.207 32.7025 256.823 31.3265 256.311 30.4945C257.495 30.5905 258.647 30.6225 259.127 30.6225C259.607 30.6225 259.863 30.5585 260.151 30.3025C260.456 29.9737 260.71 29.0417 260.912 27.0385H256.125C255.135 29.985 253.226 32.2519 249.399 33.7905C249.015 32.8945 248.055 31.5825 247.287 30.9105C251.959 29.176 253.011 26.2676 253.394 22.1425H248.759V19.0065H255.479V16.3185Z" fill="#111122"/>
<path d="M237.431 10.2705H241.335V3.64648H244.823V10.2705H248.023V13.8225H244.823V15.3505C245.73 16.6052 248.153 20.3464 248.663 21.2465L246.679 23.9985C246.277 22.9776 245.552 21.4667 244.823 20.0286V33.6945H241.335V21.5785C240.494 24.082 239.495 26.3644 238.391 27.9665C238.071 26.9425 237.239 25.4705 236.695 24.5745C238.558 22.0414 240.21 17.654 241.047 13.8225H237.431V10.2705Z" fill="#111122"/>
<path fill-rule="evenodd" clip-rule="evenodd" d="M205.207 4.47887H212.439V11.3589H205.207V4.47887ZM207.927 6.87887V8.92687H209.623V6.87887H207.927Z" fill="#111122"/>
<path fill-rule="evenodd" clip-rule="evenodd" d="M213.591 4.47887H220.855V11.3589H213.591V4.47887ZM216.311 6.87887V8.92687H218.039V6.87887H216.311Z" fill="#111122"/>
<path d="M220.919 13.0229L223.747 12.6813C223.578 9.93614 223.462 6.97742 223.383 3.83887H226.999C227.033 6.77069 227.139 9.60584 227.307 12.2514L234.167 11.4229L234.583 14.9429L227.581 15.8223C227.775 17.9508 228.012 19.9031 228.287 21.6183C229.349 19.7966 230.21 17.8498 230.839 15.8709L233.751 17.5029C232.736 20.5764 231.206 23.607 229.299 26.2759C229.843 28.046 230.46 29.0719 231.127 29.1189C231.607 29.1509 231.959 27.6469 232.119 24.7669C232.759 25.5669 234.327 26.5589 234.903 26.9109C234.103 32.5109 232.471 33.7589 231.095 33.7269C229.149 33.6389 227.682 32.1682 226.578 29.5589C225.087 31.1019 223.453 32.4171 221.719 33.4069C221.079 32.5109 219.895 31.3909 218.935 30.7189C221.353 29.5645 223.524 27.8141 225.371 25.6982C224.762 23.0912 224.324 19.9157 224.01 16.2709L221.335 16.6069L220.919 13.0229Z" fill="#111122"/>
<path d="M228.055 5.59887L230.967 4.09487C232.215 5.75887 233.623 7.99887 234.167 9.50287L231.063 11.1989C230.583 9.69487 229.271 7.32687 228.055 5.59887Z" fill="#111122"/>
<path fill-rule="evenodd" clip-rule="evenodd" d="M220.599 24.2549H214.807V25.8549H221.431V29.2149H214.807V33.6949H211.095V29.2149H204.247V25.8549H211.095V24.2549H205.527V12.5749H220.599V24.2549ZM208.695 19.7429V21.4069H211.319V19.7429H208.695ZM214.551 19.7429V21.4069H217.303V19.7429H214.551ZM217.303 17.0869H214.551V15.3909H217.303V17.0869ZM208.695 15.3909H211.319V17.0869H208.695V15.3909Z" fill="#111122"/>
<path d="M175.287 18.6091C173.828 19.1103 172.489 19.5487 171.383 19.8707L172.343 23.5507C173.26 23.2066 174.253 22.8319 175.287 22.4388V29.6307C175.287 30.0787 175.127 30.1747 174.743 30.1747C174.359 30.2067 173.239 30.2067 172.087 30.1427C172.535 31.1987 172.983 32.7667 173.079 33.7267C175.159 33.7267 176.535 33.5987 177.495 32.9907C178.487 32.4147 178.807 31.4227 178.807 29.6307V21.0904C179.858 20.6848 180.913 20.2746 181.943 19.8707L181.271 16.4787C180.451 16.7762 179.624 17.0754 178.807 17.3687V13.2467H181.495V9.90754C182.605 11.8575 183.763 14.2333 184.279 15.8387L186.167 14.7019V17.9827C186.167 18.3064 186.164 18.6269 186.158 18.9442L186.103 18.8147C183.863 20.3187 181.591 21.8227 180.087 22.7187L182.039 25.9187C183.213 25.0379 184.515 24.0297 185.787 23.0064C185.166 26.2034 183.592 28.9018 179.767 30.8787C180.599 31.4867 181.911 32.7667 182.487 33.5987C188.855 30.0787 189.687 24.4147 189.687 18.0147V3.99871H186.167V11.5525C185.521 10.2545 184.729 8.86191 183.959 7.67871L181.111 9.24671C181.204 9.40286 181.297 9.56311 181.391 9.72671H178.807V3.67871H175.287V9.72671H171.799V13.2467H175.287V18.6091Z" fill="#111122"/>
<path d="M195.351 3.99871H191.735V28.2227C191.735 32.2547 192.567 33.4067 195.447 33.4067H198.263C200.759 33.4067 201.687 31.7107 202.039 27.2947C201.015 27.0707 199.639 26.4307 198.807 25.7907C198.711 29.0547 198.551 29.9827 197.943 29.9827H196.119C195.479 29.9827 195.351 29.7587 195.351 28.2547V20.9378C197.022 22.5779 198.706 24.4753 199.607 25.7267L202.039 23.0707C200.823 21.4707 198.391 19.1027 196.279 17.3747L195.351 18.2898V14.6719L197.431 15.8387C198.221 14.6859 199.11 13.0917 200.023 11.455C200.479 10.6384 200.941 9.81093 201.399 9.02271L197.975 7.29471C197.384 9.14715 196.321 11.5402 195.351 13.3777V3.99871Z" fill="#111122"/>
<path fill-rule="evenodd" clip-rule="evenodd" d="M151.125 30.8147V7.54199H160.307C162.065 7.54199 163.565 7.85639 164.807 8.48517C166.057 9.10639 167.008 9.98896 167.66 11.1329C168.319 12.2693 168.648 13.6064 168.648 15.1443C168.648 16.6897 168.315 18.0193 167.648 19.1329C166.982 20.239 166.016 21.0874 164.751 21.6784C164.681 21.7109 164.611 21.7426 164.54 21.7734L169.478 30.8147H164.046L159.638 22.5647H156.046V30.8147H151.125ZM156.046 18.6102H159.387C160.326 18.6102 161.107 18.4814 161.728 18.2238C162.349 17.9662 162.811 17.5799 163.114 17.0647C163.425 16.5496 163.58 15.9094 163.58 15.1443C163.58 14.3715 163.425 13.72 163.114 13.1897C162.811 12.6594 162.345 12.2579 161.716 11.9852C161.095 11.7049 160.311 11.5647 159.364 11.5647H156.046V18.6102Z" fill="#111122"/>
<path fill-rule="evenodd" clip-rule="evenodd" d="M125.287 30.8147H130.559L132.286 25.5079H140.689L142.412 30.8147H147.684L139.662 7.54199H133.321L125.287 30.8147ZM139.442 21.667L136.582 12.8602H136.4L133.535 21.667H139.442Z" fill="#111122"/>
<path fill-rule="evenodd" clip-rule="evenodd" d="M248.823 6.46248H255.479V3.64648H259.191V6.46248H266.263V9.50249H263.806C263.697 9.7792 263.589 10.0542 263.483 10.3247L263.46 10.3834L263.458 10.3867C263.143 11.1907 262.843 11.9539 262.574 12.6065H266.615V17.9825H263.063V15.5825H251.799V18.0145H248.439V12.6065H252.132C251.963 11.697 251.683 10.5689 251.383 9.69448L252.306 9.50249H248.823V6.46248ZM254.797 9.50249H259.939C259.728 10.52 259.408 11.6897 259.097 12.6065H255.232L255.639 12.5105C255.501 11.7378 255.172 10.5367 254.797 9.50249Z" stroke="white" stroke-width="6" stroke-linejoin="round" mask="url(#path-1-outside-1_2075_18865)"/>
<path d="M255.479 16.3185H259.191V19.0065H266.295V22.1425H257.044C256.988 22.759 256.921 23.3564 256.836 23.9345H264.791C264.791 23.9345 264.759 24.7985 264.727 25.2465C264.407 29.6945 264.055 31.7425 263.255 32.5745C262.615 33.2785 261.911 33.5345 260.983 33.5985C260.183 33.6945 258.775 33.7265 257.271 33.6945C257.207 32.7025 256.823 31.3265 256.311 30.4945C257.495 30.5905 258.647 30.6225 259.127 30.6225C259.607 30.6225 259.863 30.5585 260.151 30.3025C260.456 29.9737 260.71 29.0417 260.912 27.0385H256.125C255.135 29.985 253.226 32.2519 249.399 33.7905C249.015 32.8945 248.055 31.5825 247.287 30.9105C251.959 29.176 253.011 26.2676 253.394 22.1425H248.759V19.0065H255.479V16.3185Z" stroke="white" stroke-width="6" stroke-linejoin="round" mask="url(#path-1-outside-1_2075_18865)"/>
<path d="M237.431 10.2705H241.335V3.64648H244.823V10.2705H248.023V13.8225H244.823V15.3505C245.73 16.6052 248.153 20.3464 248.663 21.2465L246.679 23.9985C246.277 22.9776 245.552 21.4667 244.823 20.0286V33.6945H241.335V21.5785C240.494 24.082 239.495 26.3644 238.391 27.9665C238.071 26.9425 237.239 25.4705 236.695 24.5745C238.558 22.0414 240.21 17.654 241.047 13.8225H237.431V10.2705Z" stroke="white" stroke-width="6" stroke-linejoin="round" mask="url(#path-1-outside-1_2075_18865)"/>
<path fill-rule="evenodd" clip-rule="evenodd" d="M205.207 4.47887H212.439V11.3589H205.207V4.47887ZM207.927 6.87887V8.92687H209.623V6.87887H207.927Z" stroke="white" stroke-width="6" stroke-linejoin="round" mask="url(#path-1-outside-1_2075_18865)"/>
<path fill-rule="evenodd" clip-rule="evenodd" d="M213.591 4.47887H220.855V11.3589H213.591V4.47887ZM216.311 6.87887V8.92687H218.039V6.87887H216.311Z" stroke="white" stroke-width="6" stroke-linejoin="round" mask="url(#path-1-outside-1_2075_18865)"/>
<path d="M220.919 13.0229L223.747 12.6813C223.578 9.93614 223.462 6.97742 223.383 3.83887H226.999C227.033 6.77069 227.139 9.60584 227.307 12.2514L234.167 11.4229L234.583 14.9429L227.581 15.8223C227.775 17.9508 228.012 19.9031 228.287 21.6183C229.349 19.7966 230.21 17.8498 230.839 15.8709L233.751 17.5029C232.736 20.5764 231.206 23.607 229.299 26.2759C229.843 28.046 230.46 29.0719 231.127 29.1189C231.607 29.1509 231.959 27.6469 232.119 24.7669C232.759 25.5669 234.327 26.5589 234.903 26.9109C234.103 32.5109 232.471 33.7589 231.095 33.7269C229.149 33.6389 227.682 32.1682 226.578 29.5589C225.087 31.1019 223.453 32.4171 221.719 33.4069C221.079 32.5109 219.895 31.3909 218.935 30.7189C221.353 29.5645 223.524 27.8141 225.371 25.6982C224.762 23.0912 224.324 19.9157 224.01 16.2709L221.335 16.6069L220.919 13.0229Z" stroke="white" stroke-width="6" stroke-linejoin="round" mask="url(#path-1-outside-1_2075_18865)"/>
<path d="M228.055 5.59887L230.967 4.09487C232.215 5.75887 233.623 7.99887 234.167 9.50287L231.063 11.1989C230.583 9.69487 229.271 7.32687 228.055 5.59887Z" stroke="white" stroke-width="6" stroke-linejoin="round" mask="url(#path-1-outside-1_2075_18865)"/>
<path fill-rule="evenodd" clip-rule="evenodd" d="M220.599 24.2549H214.807V25.8549H221.431V29.2149H214.807V33.6949H211.095V29.2149H204.247V25.8549H211.095V24.2549H205.527V12.5749H220.599V24.2549ZM208.695 19.7429V21.4069H211.319V19.7429H208.695ZM214.551 19.7429V21.4069H217.303V19.7429H214.551ZM217.303 17.0869H214.551V15.3909H217.303V17.0869ZM208.695 15.3909H211.319V17.0869H208.695V15.3909Z" stroke="white" stroke-width="6" stroke-linejoin="round" mask="url(#path-1-outside-1_2075_18865)"/>
<path d="M175.287 18.6091C173.828 19.1103 172.489 19.5487 171.383 19.8707L172.343 23.5507C173.26 23.2066 174.253 22.8319 175.287 22.4388V29.6307C175.287 30.0787 175.127 30.1747 174.743 30.1747C174.359 30.2067 173.239 30.2067 172.087 30.1427C172.535 31.1987 172.983 32.7667 173.079 33.7267C175.159 33.7267 176.535 33.5987 177.495 32.9907C178.487 32.4147 178.807 31.4227 178.807 29.6307V21.0904C179.858 20.6848 180.913 20.2746 181.943 19.8707L181.271 16.4787C180.451 16.7762 179.624 17.0754 178.807 17.3687V13.2467H181.495V9.90754C182.605 11.8575 183.763 14.2333 184.279 15.8387L186.167 14.7019V17.9827C186.167 18.3064 186.164 18.6269 186.158 18.9442L186.103 18.8147C183.863 20.3187 181.591 21.8227 180.087 22.7187L182.039 25.9187C183.213 25.0379 184.515 24.0297 185.787 23.0064C185.166 26.2034 183.592 28.9018 179.767 30.8787C180.599 31.4867 181.911 32.7667 182.487 33.5987C188.855 30.0787 189.687 24.4147 189.687 18.0147V3.99871H186.167V11.5525C185.521 10.2545 184.729 8.86191 183.959 7.67871L181.111 9.24671C181.204 9.40286 181.297 9.56311 181.391 9.72671H178.807V3.67871H175.287V9.72671H171.799V13.2467H175.287V18.6091Z" stroke="white" stroke-width="6" stroke-linejoin="round" mask="url(#path-1-outside-1_2075_18865)"/>
<path d="M195.351 3.99871H191.735V28.2227C191.735 32.2547 192.567 33.4067 195.447 33.4067H198.263C200.759 33.4067 201.687 31.7107 202.039 27.2947C201.015 27.0707 199.639 26.4307 198.807 25.7907C198.711 29.0547 198.551 29.9827 197.943 29.9827H196.119C195.479 29.9827 195.351 29.7587 195.351 28.2547V20.9378C197.022 22.5779 198.706 24.4753 199.607 25.7267L202.039 23.0707C200.823 21.4707 198.391 19.1027 196.279 17.3747L195.351 18.2898V14.6719L197.431 15.8387C198.221 14.6859 199.11 13.0917 200.023 11.455C200.479 10.6384 200.941 9.81093 201.399 9.02271L197.975 7.29471C197.384 9.14715 196.321 11.5402 195.351 13.3777V3.99871Z" stroke="white" stroke-width="6" stroke-linejoin="round" mask="url(#path-1-outside-1_2075_18865)"/>
<path fill-rule="evenodd" clip-rule="evenodd" d="M151.125 30.8147V7.54199H160.307C162.065 7.54199 163.565 7.85639 164.807 8.48517C166.057 9.10639 167.008 9.98896 167.66 11.1329C168.319 12.2693 168.648 13.6064 168.648 15.1443C168.648 16.6897 168.315 18.0193 167.648 19.1329C166.982 20.239 166.016 21.0874 164.751 21.6784C164.681 21.7109 164.611 21.7426 164.54 21.7734L169.478 30.8147H164.046L159.638 22.5647H156.046V30.8147H151.125ZM156.046 18.6102H159.387C160.326 18.6102 161.107 18.4814 161.728 18.2238C162.349 17.9662 162.811 17.5799 163.114 17.0647C163.425 16.5496 163.58 15.9094 163.58 15.1443C163.58 14.3715 163.425 13.72 163.114 13.1897C162.811 12.6594 162.345 12.2579 161.716 11.9852C161.095 11.7049 160.311 11.5647 159.364 11.5647H156.046V18.6102Z" stroke="white" stroke-width="6" stroke-linejoin="round" mask="url(#path-1-outside-1_2075_18865)"/>
<path fill-rule="evenodd" clip-rule="evenodd" d="M125.287 30.8147H130.559L132.286 25.5079H140.689L142.412 30.8147H147.684L139.662 7.54199H133.321L125.287 30.8147ZM139.442 21.667L136.582 12.8602H136.4L133.535 21.667H139.442Z" stroke="white" stroke-width="6" stroke-linejoin="round" mask="url(#path-1-outside-1_2075_18865)"/>
<path d="M85.3228 14.383C85.3988 15.1504 86.0443 15.735 86.8154 15.735H91.5313C91.9334 15.735 92.3187 15.5736 92.6007 15.2869C92.8826 15.0003 93.0377 14.6124 93.0311 14.2104C93.004 12.5571 92.5559 11.0461 91.6561 9.72952C90.765 8.42564 89.5326 7.43658 88.0187 6.74581C86.4969 6.04795 84.7684 5.72363 82.8722 5.72363C80.9999 5.72363 79.2725 6.05015 77.719 6.73864C76.1739 7.4234 74.9041 8.40259 73.9656 9.69416L73.9614 9.69991C73.0038 11.031 72.5462 12.5755 72.554 14.27C72.5466 16.3545 73.25 18.1518 74.7479 19.49C76.117 20.713 77.9107 21.5488 80.0349 22.0662L82.5637 22.7012L82.5775 22.7046C83.3722 22.8962 84.0026 23.0998 84.4859 23.3069L84.4923 23.3096C84.9438 23.5006 85.1695 23.685 85.2754 23.8095L85.2873 23.8233C85.3337 23.8765 85.3836 23.9539 85.3836 24.1555C85.3836 24.3857 85.3226 24.5529 85.1949 24.7146C85.0511 24.8967 84.8091 25.0921 84.3838 25.2581L84.3779 25.2604C83.9792 25.4179 83.4509 25.5191 82.7586 25.5191C82.0663 25.5191 81.4938 25.4148 81.0195 25.2352C80.5857 25.061 80.2827 24.8282 80.0631 24.5501C79.8793 24.3022 79.7351 23.9465 79.6983 23.406C79.6448 22.6189 78.9907 22.0077 78.2018 22.0077H73.4404C73.0367 22.0077 72.6501 22.1705 72.3678 22.4591C72.0856 22.7478 71.9317 23.138 71.9408 23.5417C71.9838 25.4414 72.4481 27.1438 73.416 28.5671L73.4159 28.5671L73.4225 28.5766C74.3819 29.9645 75.7046 30.9903 77.331 31.6657L77.3337 31.6668C78.9479 32.3336 80.7868 32.6441 82.8154 32.6441C84.8528 32.6441 86.6803 32.3393 88.2529 31.6729L88.2567 31.6713C89.8224 31.0028 91.0958 30.0303 91.9942 28.7219C92.905 27.3988 93.3405 25.8619 93.3495 24.1748L93.3495 24.1551C93.3405 23.01 93.1297 21.9347 92.6785 20.9612C92.2504 20.0212 91.644 19.2018 90.8696 18.5124C90.1207 17.8457 89.252 17.2996 88.2792 16.8653C87.3325 16.4427 86.3079 16.1109 85.2108 15.8646L83.1302 15.367L83.109 15.3621C82.6595 15.2615 82.2447 15.1427 81.8632 15.0075C81.5102 14.8751 81.2226 14.7313 80.9906 14.583C80.817 14.4658 80.7082 14.3496 80.6366 14.2411C80.6203 14.2114 80.5931 14.1444 80.5985 13.9941C80.5992 13.9759 80.5995 13.9577 80.5995 13.9395C80.5995 13.753 80.6453 13.6193 80.7368 13.4914C80.8361 13.3621 81.0143 13.2087 81.3579 13.0722L81.3742 13.0656C81.6959 12.9334 82.1675 12.8373 82.8382 12.8373C83.8191 12.8373 84.4057 13.0489 84.7556 13.3065C85.0747 13.5415 85.2702 13.853 85.3228 14.383ZM95.7993 6.04199C94.9709 6.04199 94.2993 6.71357 94.2993 7.54199V30.8147C94.2993 31.6431 94.9709 32.3147 95.7993 32.3147H100.72C101.548 32.3147 102.22 31.6431 102.22 30.8147V24.7371L103.016 23.7652L108.267 31.6464C108.545 32.0639 109.014 32.3147 109.515 32.3147H115.402C115.957 32.3147 116.467 32.0076 116.727 31.5165C116.987 31.0254 116.954 30.4308 116.642 29.9713L108.537 18.0515L116.454 8.49917C116.825 8.0516 116.904 7.43002 116.657 6.90393C116.41 6.37785 115.881 6.04199 115.299 6.04199H109.402C108.951 6.04199 108.524 6.2445 108.24 6.59354L102.22 13.9691V7.54199C102.22 6.71357 101.548 6.04199 100.72 6.04199H95.7993ZM51.3318 30.8147C51.3318 31.6431 52.0034 32.3147 52.8318 32.3147H57.7522C58.5807 32.3147 59.2522 31.6431 59.2522 30.8147V24.7693H61.8886C63.8568 24.7693 65.6309 24.4066 67.1515 23.6101C68.6595 22.8241 69.8444 21.7039 70.661 20.2562C71.4713 18.8198 71.8545 17.1956 71.8545 15.4284C71.8545 13.666 71.4772 12.0458 70.6786 10.6117C69.8824 9.16044 68.7218 8.03056 67.2373 7.23326C65.7278 6.41493 63.9662 6.04199 62.0136 6.04199H52.8318C52.0034 6.04199 51.3318 6.71357 51.3318 7.54199V30.8147ZM61.0932 17.8261H59.2522V13.0647H61.0704C61.8657 13.0647 62.3945 13.202 62.7374 13.3818L62.7502 13.3884C63.1122 13.5738 63.3391 13.8079 63.4893 14.0971L63.5003 14.1178C63.6731 14.4383 63.7863 14.8592 63.7863 15.4284C63.7863 15.9861 63.6746 16.4185 63.4927 16.7645L63.4927 16.7645L63.4893 16.771C63.3361 17.0659 63.1016 17.3129 62.7279 17.5141C62.395 17.69 61.8775 17.8261 61.0932 17.8261Z" fill="#005E9E" stroke="white" stroke-width="3" stroke-linejoin="round"/>
<path d="M17.9794 15.4792C18.1643 16.1219 18.7523 16.5645 19.421 16.5645H24.421C24.8546 16.5645 25.267 16.3769 25.5519 16.05C25.8368 15.723 25.9662 15.2888 25.9069 14.8593C25.7222 13.5229 25.301 12.2808 24.6362 11.148C23.9799 10.0223 23.1317 9.05085 22.1004 8.23946C21.0774 7.4286 19.9149 6.81144 18.6269 6.38158C17.3217 5.93839 15.9312 5.72363 14.4664 5.72363C12.75 5.72363 11.1277 6.02462 9.61564 6.64162C8.1029 7.25889 6.77288 8.16195 5.63611 9.34211C4.48625 10.5359 3.60968 11.9751 2.99259 13.6319L2.99259 13.6319L2.99112 13.6359C2.37343 15.3088 2.08008 17.1714 2.08008 19.2009C2.08008 21.8414 2.57357 24.2074 3.62029 26.2489L3.62028 26.2489L3.62379 26.2557C4.67167 28.2741 6.15238 29.8634 8.05922 30.9831L8.06365 30.9856C9.97528 32.0993 12.1598 32.6327 14.5687 32.6327C16.7291 32.6327 18.7073 32.1959 20.4653 31.2817L20.4705 31.279C22.2304 30.3551 23.6264 29.0314 24.633 27.3274L24.6347 27.3245C25.6585 25.5823 26.1369 23.5509 26.1369 21.2918V18.36C26.1369 17.5316 25.4653 16.86 24.6369 16.86H14.8983C14.0698 16.86 13.3983 17.5316 13.3983 18.36V22.0645C13.3983 22.893 14.0698 23.5645 14.8983 23.5645H18.0605C18.0308 23.6252 17.9993 23.6839 17.9662 23.7406L17.9662 23.7405L17.9604 23.7507C17.6994 24.2061 17.3196 24.5714 16.7703 24.8492C16.2386 25.1144 15.5306 25.2805 14.5914 25.2805C13.6165 25.2805 12.848 25.0498 12.2242 24.6419C11.5994 24.226 11.0772 23.6034 10.6837 22.6954C10.2939 21.7958 10.0687 20.6319 10.0687 19.1555C10.0687 17.6805 10.2972 16.5306 10.6887 15.6527L10.6902 15.6493C11.0916 14.7431 11.6154 14.125 12.2343 13.7152C12.866 13.3018 13.6186 13.0759 14.546 13.0759C15.0581 13.0759 15.4878 13.14 15.8479 13.2496L15.8479 13.2496L15.8536 13.2513C16.2323 13.3649 16.5429 13.522 16.8009 13.7131C16.8092 13.7192 16.8176 13.7253 16.8261 13.7313C17.0906 13.9189 17.3147 14.1491 17.5025 14.4307L17.5024 14.4307L17.5093 14.4409C17.6981 14.7191 17.8588 15.06 17.9794 15.4792ZM32.2656 32.3147C32.9153 32.3147 33.4911 31.8965 33.6921 31.2788L35.0814 27.0079H41.3048L42.6912 31.2779C42.892 31.8961 43.468 32.3147 44.1179 32.3147H49.3906C49.8755 32.3147 50.3305 32.0803 50.612 31.6856C50.8935 31.2908 50.9668 30.7843 50.8088 30.3259L42.786 7.05313C42.5774 6.44807 42.0079 6.04199 41.3679 6.04199H35.027C34.3872 6.04199 33.8179 6.44777 33.6091 7.05252L25.575 30.3252C25.4168 30.7837 25.4899 31.2903 25.7714 31.6853C26.0529 32.0802 26.5079 32.3147 26.9929 32.3147H32.2656ZM37.3069 20.167L38.1962 17.4335L39.0837 20.167H37.3069Z" fill="#C10230" stroke="white" stroke-width="3" stroke-linejoin="round"/>
</svg>
